# Blender v2.93.5 OBJ File: 'terrain.blend'
# www.blender.org
mtllib terrain.mtl
o ê²©ì
v -1.000000 0.000000 1.000000
v -0.800000 0.000000 1.000000
v -0.600000 0.000000 1.000000
v -0.400000 0.000000 1.000000
v -0.200000 0.050000 1.000000
v 0.000000 0.000000 1.000000
v 0.200000 0.000000 1.000000
v 0.400000 0.000000 1.000000
v 0.600000 0.000000 1.000000
v 0.800000 0.050000 1.000000
v 1.000000 0.000000 1.000000
v -1.000000 0.000000 0.800000
v -0.800000 0.050000 0.800000
v -0.600000 0.000000 0.800000
v -0.400000 0.050000 0.800000
v -0.200000 0.025000 0.800000
v 0.000000 0.000000 0.800000
v 0.200000 0.050000 0.800000
v 0.400000 0.000000 0.800000
v 0.600000 0.025000 0.800000
v 0.800000 0.000000 0.800000
v 1.000000 0.000000 0.800000
v -1.000000 0.000000 0.600000
v -0.800000 0.000000 0.600000
v -0.600000 0.000000 0.600000
v -0.400000 0.000000 0.600000
v -0.200000 0.000000 0.600000
v 0.000000 0.000000 0.600000
v 0.200000 0.025000 0.600000
v 0.400000 0.050000 0.600000
v 0.600000 0.000000 0.600000
v 0.800000 0.000000 0.600000
v 1.000000 0.050000 0.600000
v -1.000000 0.000000 0.400000
v -0.800000 0.025000 0.400000
v -0.600000 0.000000 0.400000
v -0.400000 0.025000 0.400000
v -0.200000 0.000000 0.400000
v 0.000000 0.000000 0.400000
v 0.200000 0.000000 0.400000
v 0.400000 0.000000 0.400000
v 0.600000 0.050000 0.400000
v 0.800000 0.000000 0.400000
v 1.000000 0.000000 0.400000
v -1.000000 0.000000 0.200000
v -0.800000 0.050000 0.200000
v -0.600000 0.000000 0.200000
v -0.400000 0.000000 0.200000
v -0.200000 0.000000 0.200000
v 0.000000 0.000000 0.200000
v 0.200000 0.025000 0.200000
v 0.400000 0.000000 0.200000
v 0.600000 0.000000 0.200000
v 0.800000 0.000000 0.200000
v 1.000000 0.000000 0.200000
v -1.000000 0.000000 0.000000
v -0.800000 0.000000 0.000000
v -0.600000 0.000000 0.000000
v -0.400000 0.000000 0.000000
v -0.200000 0.050000 0.000000
v 0.000000 0.000000 0.000000
v 0.200000 0.000000 0.000000
v 0.400000 0.000000 0.000000
v 0.600000 0.025000 0.000000
v 0.800000 0.050000 0.000000
v 1.000000 0.000000 0.000000
v -1.000000 0.000000 -0.200000
v -0.800000 0.000000 -0.200000
v -0.600000 0.000000 -0.200000
v -0.400000 0.000000 -0.200000
v -0.200000 0.000000 -0.200000
v 0.000000 0.025000 -0.200000
v 0.200000 0.050000 -0.200000
v 0.400000 0.000000 -0.200000
v 0.600000 0.000000 -0.200000
v 0.800000 0.000000 -0.200000
v 1.000000 0.050000 -0.200000
v -1.000000 0.000000 -0.400000
v -0.800000 0.000000 -0.400000
v -0.600000 0.000000 -0.400000
v -0.400000 0.050000 -0.400000
v -0.200000 0.000000 -0.400000
v 0.000000 0.000000 -0.400000
v 0.200000 0.000000 -0.400000
v 0.400000 0.000000 -0.400000
v 0.600000 0.050000 -0.400000
v 0.800000 0.025000 -0.400000
v 1.000000 0.000000 -0.400000
v -1.000000 0.000000 -0.600000
v -0.800000 0.025000 -0.600000
v -0.600000 0.050000 -0.600000
v -0.400000 0.000000 -0.600000
v -0.200000 0.000000 -0.600000
v 0.000000 0.050000 -0.600000
v 0.200000 0.000000 -0.600000
v 0.400000 0.025000 -0.600000
v 0.600000 0.000000 -0.600000
v 0.800000 0.050000 -0.600000
v 1.000000 0.000000 -0.600000
v -1.000000 0.000000 -0.800000
v -0.800000 0.000000 -0.800000
v -0.600000 0.000000 -0.800000
v -0.400000 0.000000 -0.800000
v -0.200000 0.050000 -0.800000
v 0.000000 0.025000 -0.800000
v 0.200000 0.050000 -0.800000
v 0.400000 0.000000 -0.800000
v 0.600000 0.000000 -0.800000
v 0.800000 0.000000 -0.800000
v 1.000000 0.050000 -0.800000
v -1.000000 0.000000 -1.000000
v -0.800000 0.050000 -1.000000
v -0.600000 0.000000 -1.000000
v -0.400000 0.000000 -1.000000
v -0.200000 0.000000 -1.000000
v 0.000000 0.000000 -1.000000
v 0.200000 0.000000 -1.000000
v 0.400000 0.000000 -1.000000
v 0.600000 0.000000 -1.000000
v 0.800000 0.000000 -1.000000
v 1.000000 0.000000 -1.000000
v 0.700000 0.000000 -0.700000
v -0.100000 0.050000 0.300000
v 0.300000 0.000000 0.700000
v 0.500000 0.050000 -0.100000
v 0.900000 0.050000 0.300000
v -0.300000 0.000000 0.900000
v -0.100000 0.000000 0.100000
v 0.300000 0.000000 0.500000
v 0.700000 0.000000 0.900000
v 0.500000 0.000000 -0.300000
v 0.900000 0.000000 0.100000
v -0.300000 0.000000 0.700000
v 0.300000 0.050000 0.300000
v 0.700000 0.050000 0.700000
v -0.900000 0.000000 0.900000
v 0.500000 0.000000 -0.500000
v 0.900000 0.000000 -0.100000
v -0.300000 0.000000 0.500000
v 0.100000 0.025000 0.900000
v 0.300000 0.000000 0.100000
v 0.700000 0.025000 0.500000
v 0.900000 0.000000 -0.300000
v -0.300000 0.000000 0.300000
v 0.100000 0.000000 0.700000
v 0.300000 0.000000 -0.100000
v 0.700000 0.000000 0.300000
v -0.500000 0.000000 0.900000
v 0.900000 0.000000 -0.500000
v 0.100000 0.050000 0.500000
v 0.500000 0.050000 0.900000
v 0.300000 0.000000 -0.300000
v 0.700000 0.000000 0.100000
v -0.500000 0.000000 0.700000
v 0.900000 0.000000 -0.700000
v 0.100000 0.000000 0.300000
v 0.500000 0.000000 0.700000
v 0.700000 0.000000 -0.100000
v -0.500000 0.050000 0.500000
v -0.100000 0.000000 0.900000
v 0.900000 0.000000 -0.900000
v 0.100000 0.050000 0.100000
v 0.500000 0.000000 0.500000
v 0.900000 0.000000 0.900000
v 0.700000 0.000000 -0.300000
v -0.100000 0.050000 0.700000
v 0.100000 0.000000 -0.100000
v 0.500000 0.000000 0.300000
v 0.900000 0.000000 0.700000
v -0.700000 0.000000 0.900000
v 0.700000 0.000000 -0.500000
v -0.100000 0.000000 0.500000
v 0.300000 0.000000 0.900000
v 0.500000 0.000000 0.100000
v 0.900000 0.000000 0.500000
v -0.700000 0.025000 0.700000
v -0.700000 0.050000 -0.100000
v -0.500000 0.000000 -0.700000
v -0.900000 0.050000 0.500000
v -0.900000 0.000000 0.700000
v -0.700000 0.000000 0.100000
v -0.500000 0.000000 -0.500000
v 0.700000 0.050000 -0.900000
v -0.500000 0.025000 -0.300000
v -0.300000 0.000000 -0.900000
v -0.700000 0.000000 0.300000
v -0.700000 0.000000 0.500000
v -0.500000 0.000000 -0.100000
v -0.300000 0.000000 -0.700000
v -0.500000 0.050000 0.100000
v -0.300000 0.000000 -0.500000
v -0.500000 0.000000 0.300000
v -0.300000 0.000000 -0.300000
v -0.100000 0.000000 -0.900000
v -0.300000 0.000000 -0.100000
v -0.100000 0.000000 -0.700000
v -0.300000 0.025000 0.100000
v -0.100000 0.000000 -0.500000
v -0.100000 0.050000 -0.300000
v 0.100000 0.000000 -0.900000
v -0.900000 0.000000 -0.900000
v -0.100000 0.000000 -0.100000
v 0.100000 0.000000 -0.700000
v -0.900000 0.050000 -0.700000
v 0.100000 0.000000 -0.500000
v -0.900000 0.050000 -0.500000
v 0.100000 0.000000 -0.300000
v 0.300000 0.000000 -0.900000
v -0.900000 0.000000 -0.300000
v -0.700000 0.000000 -0.900000
v 0.300000 0.000000 -0.700000
v -0.900000 0.000000 -0.100000
v -0.700000 0.000000 -0.700000
v 0.300000 0.050000 -0.500000
v -0.900000 0.000000 0.100000
v -0.700000 0.000000 -0.500000
v 0.500000 0.000000 -0.900000
v -0.700000 0.000000 -0.300000
v -0.500000 0.050000 -0.900000
v -0.900000 0.000000 0.300000
v 0.500000 0.050000 -0.700000
vt 0.100000 0.000000
vt 0.050000 0.050000
vt 0.000000 0.000000
vt 0.200000 0.000000
vt 0.150000 0.050000
vt 0.300000 0.000000
vt 0.250000 0.050000
vt 0.400000 0.000000
vt 0.350000 0.050000
vt 0.500000 0.000000
vt 0.450000 0.050000
vt 0.600000 0.000000
vt 0.550000 0.050000
vt 0.700000 0.000000
vt 0.650000 0.050000
vt 0.800000 0.000000
vt 0.750000 0.050000
vt 0.900000 0.000000
vt 0.850000 0.050000
vt 1.000000 0.000000
vt 0.950000 0.050000
vt 0.100000 0.100000
vt 0.050000 0.150000
vt 0.000000 0.100000
vt 0.200000 0.100000
vt 0.150000 0.150000
vt 0.300000 0.100000
vt 0.250000 0.150000
vt 0.400000 0.100000
vt 0.350000 0.150000
vt 0.500000 0.100000
vt 0.450000 0.150000
vt 0.600000 0.100000
vt 0.550000 0.150000
vt 0.700000 0.100000
vt 0.650000 0.150000
vt 0.800000 0.100000
vt 0.750000 0.150000
vt 0.900000 0.100000
vt 0.850000 0.150000
vt 1.000000 0.100000
vt 0.950000 0.150000
vt 0.100000 0.200000
vt 0.050000 0.250000
vt 0.000000 0.200000
vt 0.200000 0.200000
vt 0.150000 0.250000
vt 0.300000 0.200000
vt 0.250000 0.250000
vt 0.400000 0.200000
vt 0.350000 0.250000
vt 0.500000 0.200000
vt 0.450000 0.250000
vt 0.600000 0.200000
vt 0.550000 0.250000
vt 0.700000 0.200000
vt 0.650000 0.250000
vt 0.800000 0.200000
vt 0.750000 0.250000
vt 0.900000 0.200000
vt 0.850000 0.250000
vt 1.000000 0.200000
vt 0.950000 0.250000
vt 0.100000 0.300000
vt 0.050000 0.350000
vt 0.000000 0.300000
vt 0.200000 0.300000
vt 0.150000 0.350000
vt 0.300000 0.300000
vt 0.250000 0.350000
vt 0.400000 0.300000
vt 0.350000 0.350000
vt 0.500000 0.300000
vt 0.450000 0.350000
vt 0.600000 0.300000
vt 0.550000 0.350000
vt 0.700000 0.300000
vt 0.650000 0.350000
vt 0.800000 0.300000
vt 0.750000 0.350000
vt 0.900000 0.300000
vt 0.850000 0.350000
vt 1.000000 0.300000
vt 0.950000 0.350000
vt 0.100000 0.400000
vt 0.050000 0.450000
vt 0.000000 0.400000
vt 0.200000 0.400000
vt 0.150000 0.450000
vt 0.300000 0.400000
vt 0.250000 0.450000
vt 0.400000 0.400000
vt 0.350000 0.450000
vt 0.500000 0.400000
vt 0.450000 0.450000
vt 0.600000 0.400000
vt 0.550000 0.450000
vt 0.700000 0.400000
vt 0.650000 0.450000
vt 0.800000 0.400000
vt 0.750000 0.450000
vt 0.900000 0.400000
vt 0.850000 0.450000
vt 1.000000 0.400000
vt 0.950000 0.450000
vt 0.100000 0.500000
vt 0.050000 0.550000
vt 0.000000 0.500000
vt 0.200000 0.500000
vt 0.150000 0.550000
vt 0.300000 0.500000
vt 0.250000 0.550000
vt 0.400000 0.500000
vt 0.350000 0.550000
vt 0.500000 0.500000
vt 0.450000 0.550000
vt 0.600000 0.500000
vt 0.550000 0.550000
vt 0.700000 0.500000
vt 0.650000 0.550000
vt 0.800000 0.500000
vt 0.750000 0.550000
vt 0.900000 0.500000
vt 0.850000 0.550000
vt 1.000000 0.500000
vt 0.950000 0.550000
vt 0.100000 0.600000
vt 0.050000 0.650000
vt 0.000000 0.600000
vt 0.200000 0.600000
vt 0.150000 0.650000
vt 0.300000 0.600000
vt 0.250000 0.650000
vt 0.400000 0.600000
vt 0.350000 0.650000
vt 0.500000 0.600000
vt 0.450000 0.650000
vt 0.600000 0.600000
vt 0.550000 0.650000
vt 0.700000 0.600000
vt 0.650000 0.650000
vt 0.800000 0.600000
vt 0.750000 0.650000
vt 0.900000 0.600000
vt 0.850000 0.650000
vt 1.000000 0.600000
vt 0.950000 0.650000
vt 0.100000 0.700000
vt 0.050000 0.750000
vt 0.000000 0.700000
vt 0.200000 0.700000
vt 0.150000 0.750000
vt 0.300000 0.700000
vt 0.250000 0.750000
vt 0.400000 0.700000
vt 0.350000 0.750000
vt 0.500000 0.700000
vt 0.450000 0.750000
vt 0.600000 0.700000
vt 0.550000 0.750000
vt 0.700000 0.700000
vt 0.650000 0.750000
vt 0.800000 0.700000
vt 0.750000 0.750000
vt 0.900000 0.700000
vt 0.850000 0.750000
vt 1.000000 0.700000
vt 0.950000 0.750000
vt 0.100000 0.800000
vt 0.050000 0.850000
vt 0.000000 0.800000
vt 0.200000 0.800000
vt 0.150000 0.850000
vt 0.300000 0.800000
vt 0.250000 0.850000
vt 0.400000 0.800000
vt 0.350000 0.850000
vt 0.500000 0.800000
vt 0.450000 0.850000
vt 0.600000 0.800000
vt 0.550000 0.850000
vt 0.700000 0.800000
vt 0.650000 0.850000
vt 0.800000 0.800000
vt 0.750000 0.850000
vt 0.900000 0.800000
vt 0.850000 0.850000
vt 1.000000 0.800000
vt 0.950000 0.850000
vt 0.100000 0.900000
vt 0.050000 0.950000
vt 0.000000 0.900000
vt 0.200000 0.900000
vt 0.150000 0.950000
vt 0.300000 0.900000
vt 0.250000 0.950000
vt 0.400000 0.900000
vt 0.350000 0.950000
vt 0.500000 0.900000
vt 0.450000 0.950000
vt 0.600000 0.900000
vt 0.550000 0.950000
vt 0.700000 0.900000
vt 0.650000 0.950000
vt 0.800000 0.900000
vt 0.750000 0.950000
vt 0.900000 0.900000
vt 0.850000 0.950000
vt 1.000000 0.900000
vt 0.950000 0.950000
vt 0.100000 1.000000
vt 0.200000 1.000000
vt 0.300000 1.000000
vt 0.400000 1.000000
vt 0.500000 1.000000
vt 0.600000 1.000000
vt 0.700000 1.000000
vt 0.800000 1.000000
vt 0.900000 1.000000
vt 1.000000 1.000000
vt 0.000000 1.000000
vn 0.0000 1.0000 0.0000
vn -0.2357 0.9428 -0.2357
vn 0.2357 0.9428 -0.2357
vn 0.0000 0.9701 0.2425
vn 0.0000 0.8944 0.4472
vn 0.2425 0.9701 -0.0000
vn 0.1162 0.9300 -0.3487
vn 0.1162 0.9300 0.3487
vn -0.1231 0.9847 -0.1231
vn -0.1162 0.9300 0.3487
vn -0.1162 0.9300 -0.3487
vn 0.1231 0.9847 -0.1231
vn -0.2357 0.9428 0.2357
vn -0.3487 0.9300 -0.1162
vn 0.3487 0.9300 0.1162
vn 0.4472 0.8944 0.0000
vn 0.3487 0.9300 -0.1162
vn -0.3487 0.9300 0.1162
vn -0.1231 0.9847 0.1231
vn -0.2425 0.9701 0.0000
vn 0.1231 0.9847 0.1231
vn 0.2357 0.9428 0.2357
vn 0.0000 0.9701 -0.2425
vn 0.0000 0.8944 -0.4472
vn -0.4472 0.8944 0.0000
usemtl None
s off
f 2/1/1 136/2/1 1/3/1
f 3/4/1 170/5/1 2/1/1
f 4/6/1 148/7/1 3/4/1
f 5/8/2 127/9/2 4/6/2
f 6/10/3 160/11/3 5/8/3
f 7/12/4 140/13/4 6/10/4
f 8/14/1 173/15/1 7/12/1
f 9/16/5 151/17/5 8/14/5
f 10/18/2 130/19/2 9/16/2
f 11/20/3 164/21/3 10/18/3
f 13/22/2 180/23/2 12/24/2
f 14/25/6 176/26/6 13/22/6
f 15/27/2 154/28/2 14/25/2
f 16/29/7 133/30/7 15/27/7
f 17/31/8 166/32/8 16/29/8
f 18/33/2 145/34/2 17/31/2
f 19/35/3 124/36/3 18/33/3
f 20/37/9 157/38/9 19/35/9
f 21/39/8 135/40/8 20/37/8
f 22/41/1 169/42/1 21/39/1
f 24/43/5 179/44/5 23/45/5
f 25/46/1 187/47/1 24/43/1
f 26/48/5 159/49/5 25/46/5
f 27/50/1 139/51/1 26/48/1
f 28/52/1 172/53/1 27/50/1
f 29/54/10 150/55/10 28/52/10
f 30/56/11 129/57/11 29/54/11
f 31/58/3 163/59/3 30/56/3
f 32/60/4 142/61/4 31/58/4
f 33/62/2 175/63/2 32/60/2
f 35/64/9 220/65/9 34/66/9
f 36/67/12 186/68/12 35/64/12
f 37/69/9 192/70/9 36/67/9
f 38/71/12 144/72/12 37/69/12
f 39/73/5 123/74/5 38/71/5
f 40/75/1 156/76/1 39/73/1
f 41/77/5 134/78/5 40/75/5
f 42/79/2 168/80/2 41/77/2
f 43/81/3 147/82/3 42/79/3
f 44/83/5 126/84/5 43/81/5
f 46/85/2 215/86/2 45/87/2
f 47/88/3 181/89/3 46/85/3
f 48/90/5 190/91/5 47/88/5
f 49/92/4 197/93/4 48/90/4
f 50/94/1 128/95/1 49/92/1
f 51/96/10 162/97/10 50/94/10
f 52/98/12 141/99/12 51/96/12
f 53/100/1 174/101/1 52/98/1
f 54/102/1 153/103/1 53/100/1
f 55/104/1 132/105/1 54/102/1
f 57/106/1 212/107/1 56/108/1
f 58/109/5 177/110/5 57/106/5
f 59/111/1 188/112/1 58/109/1
f 60/113/2 195/114/2 59/111/2
f 61/115/3 202/116/3 60/113/3
f 62/117/1 167/118/1 61/115/1
f 63/119/1 146/120/1 62/117/1
f 64/121/10 125/122/10 63/119/10
f 65/123/11 158/124/11 64/121/11
f 66/125/3 138/126/3 65/123/3
f 68/127/1 209/128/1 67/129/1
f 69/130/1 218/131/1 68/127/1
f 70/132/4 184/133/4 69/130/4
f 71/134/1 193/135/1 70/132/1
f 72/136/10 199/137/10 71/134/10
f 73/138/11 207/139/11 72/136/11
f 74/140/3 152/141/3 73/138/3
f 75/142/1 131/143/1 74/140/1
f 76/144/1 165/145/1 75/142/1
f 77/146/2 143/147/2 76/144/2
f 79/148/5 206/149/5 78/150/5
f 80/151/1 216/152/1 79/148/1
f 81/153/2 182/154/2 80/151/2
f 82/155/3 191/156/3 81/153/3
f 83/157/1 198/158/1 82/155/1
f 84/159/1 205/160/1 83/157/1
f 85/161/5 214/162/5 84/159/5
f 86/163/2 137/164/2 85/161/2
f 87/165/7 171/166/7 86/163/7
f 88/167/12 149/168/12 87/165/12
f 90/169/10 204/170/10 89/171/10
f 91/172/11 213/173/11 90/169/11
f 92/174/3 178/175/3 91/172/3
f 93/176/1 189/177/1 92/174/1
f 94/178/2 196/179/2 93/176/2
f 95/180/3 203/181/3 94/178/3
f 96/182/9 211/183/9 95/180/9
f 97/184/8 221/185/8 96/182/8
f 98/186/2 122/187/2 97/184/2
f 99/188/3 155/189/3 98/186/3
f 101/190/1 201/191/1 100/192/1
f 102/193/1 210/194/1 101/190/1
f 103/195/5 219/196/5 102/193/5
f 104/197/2 185/198/2 103/195/2
f 105/199/7 194/200/7 104/197/7
f 106/201/11 200/202/11 105/199/11
f 107/203/3 208/204/3 106/201/3
f 108/205/1 217/206/1 107/203/1
f 109/207/5 183/208/5 108/205/5
f 110/209/2 161/210/2 109/207/2
f 2/1/13 13/22/13 136/2/13
f 3/4/1 14/25/1 170/5/1
f 4/6/13 15/27/13 148/7/13
f 5/8/14 16/29/14 127/9/14
f 6/10/1 17/31/1 160/11/1
f 7/12/4 18/33/4 140/13/4
f 8/14/1 19/35/1 173/15/1
f 9/16/15 20/37/15 151/17/15
f 10/18/2 21/39/2 130/19/2
f 11/20/1 22/41/1 164/21/1
f 13/22/2 24/43/2 180/23/2
f 14/25/6 25/46/6 176/26/6
f 15/27/2 26/48/2 154/28/2
f 16/29/9 27/50/9 133/30/9
f 17/31/16 28/52/16 166/32/16
f 18/33/14 29/54/14 145/34/14
f 19/35/13 30/56/13 124/36/13
f 20/37/9 31/58/9 157/38/9
f 21/39/16 32/60/16 135/40/16
f 22/41/13 33/62/13 169/42/13
f 24/43/15 35/64/15 179/44/15
f 25/46/1 36/67/1 187/47/1
f 26/48/15 37/69/15 159/49/15
f 27/50/1 38/71/1 139/51/1
f 28/52/1 39/73/1 172/53/1
f 29/54/17 40/75/17 150/55/17
f 30/56/2 41/77/2 129/57/2
f 31/58/13 42/79/13 163/59/13
f 32/60/6 43/81/6 142/61/6
f 33/62/2 44/83/2 175/63/2
f 35/64/18 46/85/18 220/65/18
f 36/67/1 47/88/1 186/68/1
f 37/69/9 48/90/9 192/70/9
f 38/71/1 49/92/1 144/72/1
f 39/73/16 50/94/16 123/74/16
f 40/75/19 51/96/19 156/76/19
f 41/77/16 52/98/16 134/78/16
f 42/79/2 53/100/2 168/80/2
f 43/81/1 54/102/1 147/82/1
f 44/83/16 55/104/16 126/84/16
f 46/85/2 57/106/2 215/86/2
f 47/88/1 58/109/1 181/89/1
f 48/90/16 59/111/16 190/91/16
f 49/92/4 60/113/4 197/93/4
f 50/94/1 61/115/1 128/95/1
f 51/96/17 62/117/17 162/97/17
f 52/98/1 63/119/1 141/99/1
f 53/100/19 64/121/19 174/101/19
f 54/102/13 65/123/13 153/103/13
f 55/104/1 66/125/1 132/105/1
f 57/106/1 68/127/1 212/107/1
f 58/109/16 69/130/16 177/110/16
f 59/111/1 70/132/1 188/112/1
f 60/113/2 71/134/2 195/114/2
f 61/115/19 72/136/19 202/116/19
f 62/117/13 73/138/13 167/118/13
f 63/119/1 74/140/1 146/120/1
f 64/121/17 75/142/17 125/122/17
f 65/123/2 76/144/2 158/124/2
f 66/125/13 77/146/13 138/126/13
f 68/127/1 79/148/1 209/128/1
f 69/130/1 80/151/1 218/131/1
f 70/132/4 81/153/4 184/133/4
f 71/134/1 82/155/1 193/135/1
f 72/136/17 83/157/17 199/137/17
f 73/138/2 84/159/2 207/139/2
f 74/140/1 85/161/1 152/141/1
f 75/142/13 86/163/13 131/143/13
f 76/144/19 87/165/19 165/145/19
f 77/146/2 88/167/2 143/147/2
f 79/148/15 90/169/15 206/149/15
f 80/151/13 91/172/13 216/152/13
f 81/153/2 92/174/2 182/154/2
f 82/155/1 93/176/1 191/156/1
f 83/157/13 94/178/13 198/158/13
f 84/159/1 95/180/1 205/160/1
f 85/161/15 96/182/15 214/162/15
f 86/163/2 97/184/2 137/164/2
f 87/165/18 98/186/18 171/166/18
f 88/167/1 99/188/1 149/168/1
f 90/169/17 101/190/17 204/170/17
f 91/172/2 102/193/2 213/173/2
f 92/174/1 103/195/1 178/175/1
f 93/176/13 104/197/13 189/177/13
f 94/178/14 105/199/14 196/179/14
f 95/180/13 106/201/13 203/181/13
f 96/182/9 107/203/9 211/183/9
f 97/184/16 108/205/16 221/185/16
f 98/186/2 109/207/2 122/187/2
f 99/188/13 110/209/13 155/189/13
f 101/190/13 112/211/13 201/191/13
f 102/193/1 113/212/1 210/194/1
f 103/195/16 114/213/16 219/196/16
f 104/197/2 115/214/2 185/198/2
f 105/199/9 116/215/9 194/200/9
f 106/201/2 117/216/2 200/202/2
f 107/203/1 118/217/1 208/204/1
f 108/205/1 119/218/1 217/206/1
f 109/207/16 120/219/16 183/208/16
f 110/209/2 121/220/2 161/210/2
f 140/13/20 18/33/20 17/31/20
f 30/56/3 163/59/3 41/77/3
f 142/61/6 43/81/6 42/79/6
f 20/37/14 135/40/14 31/58/14
f 169/42/13 33/62/13 32/60/13
f 10/18/3 164/21/3 21/39/3
f 122/187/1 109/207/1 108/205/1
f 144/72/1 49/92/1 48/90/1
f 61/115/21 167/118/21 72/136/21
f 146/120/22 74/140/22 73/138/22
f 86/163/3 171/166/3 97/184/3
f 1/3/1 136/2/1 12/24/1
f 149/168/22 99/188/22 98/186/22
f 170/5/22 14/25/22 13/22/22
f 26/48/21 139/51/21 37/69/21
f 172/53/1 39/73/1 38/71/1
f 51/96/12 141/99/12 62/117/12
f 174/101/19 64/121/19 63/119/19
f 76/144/21 143/147/21 87/165/21
f 16/29/14 166/32/14 27/50/14
f 145/34/19 29/54/19 28/52/19
f 41/77/1 168/80/1 52/98/1
f 147/82/1 54/102/1 53/100/1
f 6/10/20 140/13/20 17/31/20
f 173/15/22 19/35/22 18/33/22
f 31/58/4 142/61/4 42/79/4
f 175/63/1 44/83/1 43/81/1
f 21/39/1 169/42/1 32/60/1
f 152/141/1 85/161/1 84/159/1
f 97/184/1 122/187/1 108/205/1
f 155/189/13 110/209/13 109/207/13
f 176/26/23 25/46/23 24/43/23
f 37/69/12 144/72/12 48/90/12
f 123/74/24 50/94/24 49/92/24
f 62/117/22 146/120/22 73/138/22
f 125/122/24 75/142/24 74/140/24
f 87/165/15 149/168/15 98/186/15
f 2/1/22 170/5/22 13/22/22
f 148/7/13 15/27/13 14/25/13
f 27/50/1 172/53/1 38/71/1
f 150/55/24 40/75/24 39/73/24
f 52/98/1 174/101/1 63/119/1
f 153/103/10 65/123/10 64/121/10
f 17/31/1 145/34/1 28/52/1
f 124/36/10 30/56/10 29/54/10
f 42/79/3 147/82/3 53/100/3
f 126/84/24 55/104/24 54/102/24
f 7/12/22 173/15/22 18/33/22
f 151/17/11 20/37/11 19/35/11
f 32/60/1 175/63/1 43/81/1
f 161/210/1 121/220/1 120/219/1
f 128/95/22 61/115/22 60/113/22
f 73/138/3 152/141/3 84/159/3
f 131/143/13 86/163/13 85/161/13
f 98/186/3 155/189/3 109/207/3
f 13/22/23 176/26/23 24/43/23
f 154/28/1 26/48/1 25/46/1
f 38/71/25 123/74/25 49/92/25
f 156/76/19 51/96/19 50/94/19
f 63/119/25 125/122/25 74/140/25
f 158/124/1 76/144/1 75/142/1
f 3/4/1 148/7/1 14/25/1
f 127/9/8 16/29/8 15/27/8
f 28/52/25 150/55/25 39/73/25
f 129/57/1 41/77/1 40/75/1
f 53/100/21 153/103/21 64/121/21
f 132/105/22 66/125/22 65/123/22
f 18/33/17 124/36/17 29/54/17
f 157/38/22 31/58/22 30/56/22
f 43/81/25 126/84/25 54/102/25
f 8/14/25 151/17/25 19/35/25
f 130/19/21 21/39/21 20/37/21
f 137/164/21 97/184/21 96/182/21
f 109/207/1 161/210/1 120/219/1
f 159/49/11 37/69/11 36/67/11
f 49/92/22 128/95/22 60/113/22
f 162/97/24 62/117/24 61/115/24
f 74/140/1 131/143/1 85/161/1
f 165/145/8 87/165/8 86/163/8
f 14/25/1 154/28/1 25/46/1
f 133/30/1 27/50/1 26/48/1
f 39/73/1 156/76/1 50/94/1
f 134/78/7 52/98/7 51/96/7
f 64/121/12 158/124/12 75/142/12
f 138/126/13 77/146/13 76/144/13
f 4/6/22 127/9/22 15/27/22
f 160/11/21 17/31/21 16/29/21
f 29/54/12 129/57/12 40/75/12
f 163/59/13 42/79/13 41/77/13
f 54/102/22 132/105/22 65/123/22
f 19/35/22 157/38/22 30/56/22
f 135/40/24 32/60/24 31/58/24
f 9/16/21 130/19/21 20/37/21
f 164/21/1 22/41/1 21/39/1
f 167/118/10 73/138/10 72/136/10
f 85/161/21 137/164/21 96/182/21
f 171/166/13 98/186/13 97/184/13
f 136/2/13 13/22/13 12/24/13
f 25/46/25 159/49/25 36/67/25
f 139/51/21 38/71/21 37/69/21
f 50/94/25 162/97/25 61/115/25
f 141/99/1 63/119/1 62/117/1
f 75/142/22 165/145/22 86/163/22
f 143/147/21 88/167/21 87/165/21
f 15/27/3 133/30/3 26/48/3
f 166/32/24 28/52/24 27/50/24
f 40/75/18 134/78/18 51/96/18
f 168/80/1 53/100/1 52/98/1
f 65/123/3 138/126/3 76/144/3
f 5/8/17 160/11/17 16/29/17
f 56/108/1 212/107/1 67/129/1
f 177/110/24 69/130/24 68/127/24
f 81/153/3 191/156/3 92/174/3
f 198/158/13 94/178/13 93/176/13
f 106/201/3 208/204/3 117/216/3
f 217/206/1 119/218/1 118/217/1
f 46/85/3 181/89/3 57/106/3
f 190/91/24 59/111/24 58/109/24
f 71/134/25 199/137/25 82/155/25
f 207/139/1 84/159/1 83/157/1
f 96/182/14 221/185/14 107/203/14
f 180/23/1 24/43/1 23/45/1
f 36/67/1 192/70/1 47/88/1
f 206/149/11 90/169/11 89/171/11
f 102/193/25 219/196/25 113/212/25
f 185/198/1 115/214/1 114/213/1
f 67/129/1 209/128/1 78/150/1
f 218/131/1 80/151/1 79/148/1
f 92/174/1 189/177/1 103/195/1
f 196/179/8 105/199/8 104/197/8
f 57/106/25 177/110/25 68/127/25
f 188/112/1 70/132/1 69/130/1
f 82/155/1 198/158/1 93/176/1
f 205/160/22 95/180/22 94/178/22
f 107/203/1 217/206/1 118/217/1
f 183/208/24 120/219/24 119/218/24
f 179/44/11 35/64/11 34/66/11
f 47/88/25 190/91/25 58/109/25
f 197/93/20 60/113/20 59/111/20
f 72/136/12 207/139/12 83/157/12
f 12/24/1 180/23/1 23/45/1
f 204/170/24 101/190/24 100/192/24
f 78/150/25 206/149/25 89/171/25
f 216/152/10 91/172/10 90/169/10
f 103/195/1 185/198/1 114/213/1
f 194/200/1 116/215/1 115/214/1
f 68/127/1 218/131/1 79/148/1
f 184/133/20 81/153/20 80/151/20
f 93/176/22 196/179/22 104/197/22
f 203/181/10 106/201/10 105/199/10
f 220/65/13 46/85/13 45/87/13
f 58/109/1 188/112/1 69/130/1
f 195/114/1 71/134/1 70/132/1
f 83/157/22 205/160/22 94/178/22
f 214/162/11 96/182/11 95/180/11
f 108/205/25 183/208/25 119/218/25
f 23/45/25 179/44/25 34/66/25
f 187/47/21 36/67/21 35/64/21
f 48/90/20 197/93/20 59/111/20
f 201/191/13 112/211/13 111/221/13
f 89/171/25 204/170/25 100/192/25
f 213/173/1 102/193/1 101/190/1
f 79/148/21 216/152/21 90/169/21
f 182/154/22 92/174/22 91/172/22
f 104/197/3 194/200/3 115/214/3
f 200/202/1 117/216/1 116/215/1
f 215/86/1 57/106/1 56/108/1
f 69/130/20 184/133/20 80/151/20
f 193/135/22 82/155/22 81/153/22
f 94/178/17 203/181/17 105/199/17
f 211/183/22 107/203/22 106/201/22
f 34/66/1 220/65/1 45/87/1
f 186/68/22 47/88/22 46/85/22
f 59/111/1 195/114/1 70/132/1
f 202/116/19 72/136/19 71/134/19
f 84/159/25 214/162/25 95/180/25
f 24/43/21 187/47/21 35/64/21
f 100/192/1 201/191/1 111/221/1
f 210/194/22 113/212/22 112/211/22
f 90/169/12 213/173/12 101/190/12
f 178/175/1 103/195/1 102/193/1
f 212/107/1 68/127/1 67/129/1
f 80/151/22 182/154/22 91/172/22
f 191/156/1 93/176/1 92/174/1
f 105/199/12 200/202/12 116/215/12
f 208/204/1 118/217/1 117/216/1
f 45/87/1 215/86/1 56/108/1
f 181/89/1 58/109/1 57/106/1
f 70/132/22 193/135/22 81/153/22
f 199/137/24 83/157/24 82/155/24
f 95/180/22 211/183/22 106/201/22
f 221/185/24 108/205/24 107/203/24
f 35/64/15 186/68/15 46/85/15
f 192/70/1 48/90/1 47/88/1
f 60/113/3 202/116/3 71/134/3
f 101/190/22 210/194/22 112/211/22
f 219/196/24 114/213/24 113/212/24
f 209/128/1 79/148/1 78/150/1
f 91/172/3 178/175/3 102/193/3
f 189/177/13 104/197/13 103/195/13
