# Export of main
# from Aaro4130 OBJ Exporter v2.0
mtllib Amethyst1.mtl
g Amethyst_1A
v 226.7 12.68652 68.6265
v 226.7 22.68652 57.0795
v 216.7 12.68652 62.853
v 216.7 2.68652 74.4
v 226.7 12.68652 68.6265
v 236.7 22.68652 74.4
v 226.7 22.68652 57.0795
v 236.7 22.68652 74.4
v 232.7 26.18652 65.1624
v 226.7 22.68652 57.0795
v 232.7 26.18652 65.1624
v 222.7 29.68652 64.0077
v 216.7 26.18652 55.92479
v 226.7 22.68652 57.0795
v 232.7 26.18652 65.1624
v 228.7 29.68652 74.4
v 222.7 29.68652 64.0077
v 226.7 12.68652 80.17351
v 236.7 22.68652 74.4
v 226.7 12.68652 68.6265
v 216.7 2.68652 74.4
v 226.7 12.68652 80.17351
v 226.7 22.68652 91.72051
v 236.7 22.68652 74.4
v 226.7 22.68652 91.72051
v 232.7 26.18652 83.6376
v 236.7 22.68652 74.4
v 232.7 26.18652 83.6376
v 228.7 29.68652 74.4
v 232.7 26.18652 65.1624
v 236.7 22.68652 74.4
v 232.7 26.18652 83.6376
v 222.7 29.68652 84.7923
v 228.7 29.68652 74.4
v 216.7 12.68652 85.94701
v 226.7 22.68652 91.72051
v 226.7 12.68652 80.17351
v 216.7 2.68652 74.4
v 216.7 12.68652 85.94701
v 206.7 22.68652 91.7205
v 226.7 22.68652 91.72051
v 206.7 22.68652 91.7205
v 216.7 26.18652 92.87521
v 226.7 22.68652 91.72051
v 216.7 26.18652 92.87521
v 222.7 29.68652 84.7923
v 232.7 26.18652 83.6376
v 226.7 22.68652 91.72051
v 216.7 26.18652 92.87521
v 210.7 29.68652 84.7923
v 222.7 29.68652 84.7923
v 206.7 12.68652 80.1735
v 206.7 22.68652 91.7205
v 216.7 12.68652 85.94701
v 216.7 2.68652 74.4
v 206.7 12.68652 80.1735
v 196.7 22.68652 74.4
v 206.7 22.68652 91.7205
v 196.7 22.68652 74.4
v 200.7 26.18652 83.6376
v 206.7 22.68652 91.7205
v 200.7 26.18652 83.6376
v 210.7 29.68652 84.7923
v 216.7 26.18652 92.87521
v 206.7 22.68652 91.7205
v 200.7 26.18652 83.6376
v 204.7 29.68652 74.4
v 210.7 29.68652 84.7923
v 206.7 12.68652 68.6265
v 196.7 22.68652 74.4
v 206.7 12.68652 80.1735
v 216.7 2.68652 74.4
v 206.7 12.68652 68.6265
v 206.7 22.68652 57.07949
v 196.7 22.68652 74.4
v 206.7 22.68652 57.07949
v 200.7 26.18652 65.1624
v 196.7 22.68652 74.4
v 200.7 26.18652 65.1624
v 204.7 29.68652 74.4
v 200.7 26.18652 83.6376
v 196.7 22.68652 74.4
v 200.7 26.18652 65.1624
v 210.7 29.68652 64.0077
v 204.7 29.68652 74.4
v 216.7 12.68652 62.853
v 206.7 22.68652 57.07949
v 206.7 12.68652 68.6265
v 216.7 2.68652 74.4
v 216.7 12.68652 62.853
v 226.7 22.68652 57.0795
v 206.7 22.68652 57.07949
v 226.7 22.68652 57.0795
v 216.7 26.18652 55.92479
v 206.7 22.68652 57.07949
v 216.7 26.18652 55.92479
v 210.7 29.68652 64.0077
v 200.7 26.18652 65.1624
v 206.7 22.68652 57.07949
v 216.7 26.18652 55.92479
v 222.7 29.68652 64.0077
v 210.7 29.68652 64.0077
v 222.7 29.68652 64.0077
v 216.7 29.68652 74.4
v 210.7 29.68652 64.0077
v 228.7 29.68652 74.4
v 222.7 29.68652 84.7923
v 210.7 29.68652 84.7923
v 204.7 29.68652 74.4
v 226.5 22.69157 57.42587
v 226.4529 12.96679 68.7692
v 216.7 3.086517 74.4
v 216.7 12.96679 63.13838
v 236.3 22.69157 74.4
v 226.4529 12.96679 68.7692
v 226.5 22.69157 57.42587
v 232.3876 26.01371 65.34276
v 236.3 22.69157 74.4
v 226.5 22.69157 57.42587
v 222.6297 29.31208 64.12952
v 232.3876 26.01371 65.34276
v 226.5 22.69157 57.42587
v 216.7 26.01371 56.28552
v 228.5593 29.31208 74.4
v 232.3876 26.01371 65.34276
v 222.6297 29.31208 64.12952
v 236.3 22.69157 74.4
v 226.4529 12.96679 80.03082
v 216.7 3.086517 74.4
v 226.4529 12.96679 68.7692
v 226.5 22.69157 91.37414
v 226.4529 12.96679 80.03082
v 236.3 22.69157 74.4
v 232.3876 26.01371 83.45724
v 226.5 22.69157 91.37414
v 236.3 22.69157 74.4
v 228.5593 29.31208 74.4
v 232.3876 26.01371 83.45724
v 236.3 22.69157 74.4
v 232.3876 26.01371 65.34276
v 222.6297 29.31208 84.67048
v 232.3876 26.01371 83.45724
v 228.5593 29.31208 74.4
v 226.5 22.69157 91.37414
v 216.7 12.96679 85.66162
v 216.7 3.086517 74.4
v 226.4529 12.96679 80.03082
v 206.9 22.69157 91.37413
v 216.7 12.96679 85.66162
v 226.5 22.69157 91.37414
v 216.7 26.01371 92.51448
v 206.9 22.69157 91.37413
v 226.5 22.69157 91.37414
v 222.6297 29.31208 84.67048
v 216.7 26.01371 92.51448
v 226.5 22.69157 91.37414
v 232.3876 26.01371 83.45724
v 210.7703 29.31208 84.67048
v 216.7 26.01371 92.51448
v 222.6297 29.31208 84.67048
v 206.9 22.69157 91.37413
v 206.9471 12.96679 80.03081
v 216.7 3.086517 74.4
v 216.7 12.96679 85.66162
v 197.1 22.69157 74.4
v 206.9471 12.96679 80.03081
v 206.9 22.69157 91.37413
v 201.0124 26.01371 83.45724
v 197.1 22.69157 74.4
v 206.9 22.69157 91.37413
v 210.7703 29.31208 84.67048
v 201.0124 26.01371 83.45724
v 206.9 22.69157 91.37413
v 216.7 26.01371 92.51448
v 204.8407 29.31208 74.4
v 201.0124 26.01371 83.45724
v 210.7703 29.31208 84.67048
v 197.1 22.69157 74.4
v 206.9471 12.96679 68.76919
v 216.7 3.086517 74.4
v 206.9471 12.96679 80.03081
v 206.9 22.69157 57.42587
v 206.9471 12.96679 68.76919
v 197.1 22.69157 74.4
v 201.0124 26.01371 65.34276
v 206.9 22.69157 57.42587
v 197.1 22.69157 74.4
v 204.8407 29.31208 74.4
v 201.0124 26.01371 65.34276
v 197.1 22.69157 74.4
v 201.0124 26.01371 83.45724
v 210.7703 29.31208 64.12952
v 201.0124 26.01371 65.34276
v 204.8407 29.31208 74.4
v 206.9 22.69157 57.42587
v 216.7 12.96679 63.13838
v 216.7 3.086517 74.4
v 206.9471 12.96679 68.76919
v 226.5 22.69157 57.42587
v 216.7 12.96679 63.13838
v 206.9 22.69157 57.42587
v 216.7 26.01371 56.28552
v 226.5 22.69157 57.42587
v 206.9 22.69157 57.42587
v 210.7703 29.31208 64.12952
v 216.7 26.01371 56.28552
v 206.9 22.69157 57.42587
v 201.0124 26.01371 65.34276
v 222.6297 29.31208 64.12952
v 216.7 26.01371 56.28552
v 210.7703 29.31208 64.12952
v 216.7 29.28652 74.4
v 222.6297 29.31208 64.12952
v 210.7703 29.31208 64.12952
v 228.5593 29.31208 74.4
v 222.6297 29.31208 84.67048
v 210.7703 29.31208 84.67048
v 204.8407 29.31208 74.4
vn 0.2041242 -0.4082483 -0.3535534
vn 0.2041242 -0.4082483 -0.3535534
vn 0.2041242 -0.4082483 -0.3535534
vn 0.2041242 -0.4082483 -0.3535534
vn 0.4330127 -0.2886751 -0.25
vn 0.4330127 -0.2886751 -0.25
vn 0.4330127 -0.2886751 -0.25
vn 0.4748264 -0.1808864 -0.274141
vn 0.4748264 -0.1808864 -0.274141
vn 0.4748264 -0.1808864 -0.274141
vn 0.1900939 0.4345003 -0.3292523
vn 0.1900939 0.4345003 -0.3292523
vn 0.1900939 0.4345003 -0.3292523
vn 0.1900939 0.4345003 -0.3292523
vn 0.1986799 0.5298129 -0.1147078
vn 0.1986799 0.5298129 -0.1147078
vn 0.1986799 0.5298129 -0.1147078
vn 0.4082483 -0.4082483 8.429371E-08
vn 0.4082483 -0.4082483 8.429371E-08
vn 0.4082483 -0.4082483 8.429371E-08
vn 0.4082483 -0.4082483 8.429371E-08
vn 0.4330127 -0.2886751 0.25
vn 0.4330127 -0.2886751 0.25
vn 0.4330127 -0.2886751 0.25
vn 0.4748264 -0.1808862 0.2741411
vn 0.4748264 -0.1808862 0.2741411
vn 0.4748264 -0.1808862 0.2741411
vn 0.3801878 0.4345004 7.008917E-08
vn 0.3801878 0.4345004 7.008917E-08
vn 0.3801878 0.4345004 7.008917E-08
vn 0.3801878 0.4345004 7.008917E-08
vn 0.1986797 0.5298129 0.1147078
vn 0.1986797 0.5298129 0.1147078
vn 0.1986797 0.5298129 0.1147078
vn 0.2041241 -0.4082483 0.3535534
vn 0.2041241 -0.4082483 0.3535534
vn 0.2041241 -0.4082483 0.3535534
vn 0.2041241 -0.4082483 0.3535534
vn 0 -0.2886751 0.5
vn 0 -0.2886751 0.5
vn 0 -0.2886751 0.5
vn -6.41932E-08 -0.1808861 0.5482823
vn -6.41932E-08 -0.1808861 0.5482823
vn -6.41932E-08 -0.1808861 0.5482823
vn 0.1900939 0.4345004 0.3292523
vn 0.1900939 0.4345004 0.3292523
vn 0.1900939 0.4345004 0.3292523
vn 0.1900939 0.4345004 0.3292523
vn 0 0.5298129 0.2294157
vn 0 0.5298129 0.2294157
vn 0 0.5298129 0.2294157
vn -0.2041242 -0.4082483 0.3535533
vn -0.2041242 -0.4082483 0.3535533
vn -0.2041242 -0.4082483 0.3535533
vn -0.2041242 -0.4082483 0.3535533
vn -0.4330127 -0.2886752 0.2499999
vn -0.4330127 -0.2886752 0.2499999
vn -0.4330127 -0.2886752 0.2499999
vn -0.4748265 -0.1808863 0.274141
vn -0.4748265 -0.1808863 0.274141
vn -0.4748265 -0.1808863 0.274141
vn -0.1900939 0.4345004 0.3292523
vn -0.1900939 0.4345004 0.3292523
vn -0.1900939 0.4345004 0.3292523
vn -0.1900939 0.4345004 0.3292523
vn -0.1986799 0.5298129 0.1147079
vn -0.1986799 0.5298129 0.1147079
vn -0.1986799 0.5298129 0.1147079
vn -0.4082483 -0.4082483 0
vn -0.4082483 -0.4082483 0
vn -0.4082483 -0.4082483 0
vn -0.4082483 -0.4082483 0
vn -0.4330127 -0.2886751 -0.2500001
vn -0.4330127 -0.2886751 -0.2500001
vn -0.4330127 -0.2886751 -0.2500001
vn -0.4748263 -0.1808865 -0.2741412
vn -0.4748263 -0.1808865 -0.2741412
vn -0.4748263 -0.1808865 -0.2741412
vn -0.3801878 0.4345004 -8.761147E-08
vn -0.3801878 0.4345004 -8.761147E-08
vn -0.3801878 0.4345004 -8.761147E-08
vn -0.3801878 0.4345004 -8.761147E-08
vn -0.1986797 0.5298129 -0.1147079
vn -0.1986797 0.5298129 -0.1147079
vn -0.1986797 0.5298129 -0.1147079
vn -0.2041241 -0.4082483 -0.3535534
vn -0.2041241 -0.4082483 -0.3535534
vn -0.2041241 -0.4082483 -0.3535534
vn -0.2041241 -0.4082483 -0.3535534
vn 0 -0.2886752 -0.4999999
vn 0 -0.2886752 -0.4999999
vn 0 -0.2886752 -0.4999999
vn 6.419321E-08 -0.1808861 -0.5482823
vn 6.419321E-08 -0.1808861 -0.5482823
vn 6.419321E-08 -0.1808861 -0.5482823
vn -0.1900939 0.4345004 -0.3292523
vn -0.1900939 0.4345004 -0.3292523
vn -0.1900939 0.4345004 -0.3292523
vn -0.1900939 0.4345004 -0.3292523
vn 0 0.5298129 -0.2294157
vn 0 0.5298129 -0.2294157
vn 0 0.5298129 -0.2294157
vn 0 0.5773503 0
vn 0 0.5773503 0
vn 0 0.5773503 0
vn 0 0.5773503 0
vn 0 0.5773503 0
vn 0 0.5773503 0
vn 1.103789E-07 0.5773503 0
vn -0.2041503 0.4081961 0.3535986
vn -0.2041503 0.4081961 0.3535986
vn -0.2041503 0.4081961 0.3535986
vn -0.2041503 0.4081961 0.3535986
vn -0.4311212 0.2924258 0.2489077
vn -0.4311212 0.2924258 0.2489077
vn -0.4311212 0.2924258 0.2489077
vn -0.4729149 0.1874446 0.2730373
vn -0.4729149 0.1874446 0.2730373
vn -0.4729149 0.1874446 0.2730373
vn -0.187632 -0.4387598 0.3249882
vn -0.187632 -0.4387598 0.3249882
vn -0.187632 -0.4387598 0.3249882
vn -0.187632 -0.4387598 0.3249882
vn -0.1938106 -0.5322123 0.1118964
vn -0.1938106 -0.5322123 0.1118964
vn -0.1938106 -0.5322123 0.1118964
vn -0.4083005 0.408196 0
vn -0.4083005 0.408196 0
vn -0.4083005 0.408196 0
vn -0.4083005 0.408196 0
vn -0.4311211 0.2924258 -0.2489078
vn -0.4311211 0.2924258 -0.2489078
vn -0.4311211 0.2924258 -0.2489078
vn -0.4729149 0.1874443 -0.2730374
vn -0.4729149 0.1874443 -0.2730374
vn -0.4729149 0.1874443 -0.2730374
vn -0.3752641 -0.4387598 0
vn -0.3752641 -0.4387598 0
vn -0.3752641 -0.4387598 0
vn -0.3752641 -0.4387598 0
vn -0.1938104 -0.5322124 -0.1118966
vn -0.1938104 -0.5322124 -0.1118966
vn -0.1938104 -0.5322124 -0.1118966
vn -0.2041502 0.4081961 -0.3535986
vn -0.2041502 0.4081961 -0.3535986
vn -0.2041502 0.4081961 -0.3535986
vn -0.2041502 0.4081961 -0.3535986
vn 6.226897E-08 0.2924259 -0.4978156
vn 6.226897E-08 0.2924259 -0.4978156
vn 6.226897E-08 0.2924259 -0.4978156
vn 6.981912E-08 0.1874441 -0.5460752
vn 6.981912E-08 0.1874441 -0.5460752
vn 6.981912E-08 0.1874441 -0.5460752
vn -0.187632 -0.4387598 -0.3249882
vn -0.187632 -0.4387598 -0.3249882
vn -0.187632 -0.4387598 -0.3249882
vn -0.187632 -0.4387598 -0.3249882
vn 0 -0.5322124 -0.223793
vn 0 -0.5322124 -0.223793
vn 0 -0.5322124 -0.223793
vn 0.2041503 0.4081962 -0.3535985
vn 0.2041503 0.4081962 -0.3535985
vn 0.2041503 0.4081962 -0.3535985
vn 0.2041503 0.4081962 -0.3535985
vn 0.4311211 0.2924258 -0.2489077
vn 0.4311211 0.2924258 -0.2489077
vn 0.4311211 0.2924258 -0.2489077
vn 0.4729149 0.1874446 -0.2730373
vn 0.4729149 0.1874446 -0.2730373
vn 0.4729149 0.1874446 -0.2730373
vn 0.1876321 -0.4387598 -0.3249882
vn 0.1876321 -0.4387598 -0.3249882
vn 0.1876321 -0.4387598 -0.3249882
vn 0.1876321 -0.4387598 -0.3249882
vn 0.1938105 -0.5322124 -0.1118965
vn 0.1938105 -0.5322124 -0.1118965
vn 0.1938105 -0.5322124 -0.1118965
vn 0.4083005 0.408196 0
vn 0.4083005 0.408196 0
vn 0.4083005 0.408196 0
vn 0.4083005 0.408196 0
vn 0.4311211 0.2924258 0.2489079
vn 0.4311211 0.2924258 0.2489079
vn 0.4311211 0.2924258 0.2489079
vn 0.4729147 0.1874448 0.2730375
vn 0.4729147 0.1874448 0.2730375
vn 0.4729147 0.1874448 0.2730375
vn 0.3752642 -0.4387598 0
vn 0.3752642 -0.4387598 0
vn 0.3752642 -0.4387598 0
vn 0.3752642 -0.4387598 0
vn 0.1938104 -0.5322124 0.1118966
vn 0.1938104 -0.5322124 0.1118966
vn 0.1938104 -0.5322124 0.1118966
vn 0.2041502 0.4081961 0.3535987
vn 0.2041502 0.4081961 0.3535987
vn 0.2041502 0.4081961 0.3535987
vn 0.2041502 0.4081961 0.3535987
vn -6.226899E-08 0.2924259 0.4978156
vn -6.226899E-08 0.2924259 0.4978156
vn -6.226899E-08 0.2924259 0.4978156
vn -6.981912E-08 0.1874441 0.5460752
vn -6.981912E-08 0.1874441 0.5460752
vn -6.981912E-08 0.1874441 0.5460752
vn 0.1876319 -0.4387599 0.3249882
vn 0.1876319 -0.4387599 0.3249882
vn 0.1876319 -0.4387599 0.3249882
vn 0.1876319 -0.4387599 0.3249882
vn 0 -0.5322124 0.223793
vn 0 -0.5322124 0.223793
vn 0 -0.5322124 0.223793
vn 0 -0.5773485 -0.001436988
vn 0 -0.5773485 -0.001436988
vn 0 -0.5773485 -0.001436988
vn 0.001244498 -0.5773485 -0.0007184939
vn 0.001244497 -0.5773485 0.0007184942
vn 0 -0.5773485 0.001436988
vn -0.001244553 -0.5773485 0.0007184939
vt 0.2663881 0.9101235
vt 0.2839797 0.9201444
vt 0.2783726 0.9003465
vt 0.2607812 0.8903256
vt 0.2663881 0.9101235
vt 0.260944 0.9283075
vt 0.2839797 0.9201444
vt 0.260944 0.9283075
vt 0.2746577 0.9283075
vt 0.2839797 0.9201444
vt 0.2351245 0.8946532
vt 0.2356359 0.8802819
vt 0.2239488 0.872308
vt 0.2234375 0.8866793
vt 0.2351245 0.8946532
vt 0.2482085 0.8895541
vt 0.2356359 0.8802819
vt 0.3101676 0.9105655
vt 0.3234375 0.926174
vt 0.3234375 0.9073583
vt 0.3101676 0.8917499
vt 0.3101676 0.9105655
vt 0.2968976 0.926174
vt 0.3234375 0.926174
vt 0.2968976 0.926174
vt 0.3101676 0.9311559
vt 0.3234375 0.926174
vt 0.2574759 0.8970342
vt 0.2482085 0.8895541
vt 0.2351245 0.8946532
vt 0.2443919 0.9021332
vt 0.2574759 0.8970342
vt 0.2607812 0.8829604
vt 0.2482085 0.8895541
vt 0.2968976 0.9073583
vt 0.2968976 0.926174
vt 0.3101676 0.9105655
vt 0.3101676 0.8917499
vt 0.2783726 0.8623646
vt 0.2839797 0.8821626
vt 0.2968976 0.8609946
vt 0.2839797 0.8821626
vt 0.2938329 0.8746824
vt 0.2968976 0.8609946
vt 0.2302901 0.9146858
vt 0.2442055 0.9131168
vt 0.2491242 0.9021332
vt 0.2352089 0.9037023
vt 0.2302901 0.9146858
vt 0.2371427 0.9272385
vt 0.2442055 0.9131168
vt 0.2663882 0.8721417
vt 0.2839797 0.8821626
vt 0.2783726 0.8623646
vt 0.2607812 0.8523437
vt 0.2663882 0.8721417
vt 0.260944 0.8903256
vt 0.2839797 0.8821626
vt 0.260944 0.8903256
vt 0.2746577 0.8903256
vt 0.2839797 0.8821626
vt 0.2302901 0.9397911
vt 0.2371427 0.9272385
vt 0.2302901 0.9146858
vt 0.2234375 0.9272385
vt 0.2302901 0.9397911
vt 0.2442055 0.9413602
vt 0.2371427 0.9272385
vt 0.3101676 0.8711594
vt 0.3234375 0.8867679
vt 0.3234375 0.8679522
vt 0.3101676 0.8523437
vt 0.3101676 0.8711594
vt 0.2968976 0.886768
vt 0.3234375 0.8867679
vt 0.2968976 0.886768
vt 0.3101676 0.8917499
vt 0.3234375 0.8867679
vt 0.2491242 0.9523438
vt 0.2442055 0.9413602
vt 0.2302901 0.9397911
vt 0.2352089 0.9507747
vt 0.2351245 0.8523437
vt 0.2356359 0.8644158
vt 0.2482085 0.8578221
vt 0.2968976 0.8679522
vt 0.2968976 0.886768
vt 0.3101676 0.8711594
vt 0.3101676 0.8523437
vt 0.2783726 0.9003465
vt 0.2839797 0.9201444
vt 0.2968976 0.8989764
vt 0.2839797 0.9201444
vt 0.2938329 0.9126643
vt 0.2968976 0.8989764
vt 0.2239488 0.872308
vt 0.2356359 0.8644158
vt 0.2351245 0.8523437
vt 0.2234375 0.8602359
vt 0.2239488 0.872308
vt 0.2356359 0.8802819
vt 0.2356359 0.8644158
vt 0.2356359 0.8802819
vt 0.2482085 0.8736881
vt 0.2356359 0.8644158
vt 0.2482085 0.8895541
vt 0.2607812 0.8829604
vt 0.2607812 0.8670944
vt 0.2482085 0.8578221
vt 0.2839797 0.9201444
vt 0.2663881 0.9101235
vt 0.2607812 0.8903256
vt 0.2783726 0.9003465
vt 0.260944 0.9283075
vt 0.2663881 0.9101235
vt 0.2839797 0.9201444
vt 0.2746577 0.9283075
vt 0.260944 0.9283075
vt 0.2839797 0.9201444
vt 0.2356359 0.8802819
vt 0.2351245 0.8946532
vt 0.2234375 0.8866793
vt 0.2239488 0.872308
vt 0.2482085 0.8895541
vt 0.2351245 0.8946532
vt 0.2356359 0.8802819
vt 0.3234375 0.926174
vt 0.3101676 0.9105655
vt 0.3101676 0.8917499
vt 0.3234375 0.9073583
vt 0.2968976 0.926174
vt 0.3101676 0.9105655
vt 0.3234375 0.926174
vt 0.3101676 0.9311559
vt 0.2968976 0.926174
vt 0.3234375 0.926174
vt 0.2482085 0.8895541
vt 0.2574759 0.8970342
vt 0.2443919 0.9021332
vt 0.2351245 0.8946532
vt 0.2607812 0.8829604
vt 0.2574759 0.8970342
vt 0.2482085 0.8895541
vt 0.2968976 0.926174
vt 0.2968976 0.9073583
vt 0.3101676 0.8917499
vt 0.3101676 0.9105655
vt 0.2839797 0.8821626
vt 0.2783726 0.8623646
vt 0.2968976 0.8609946
vt 0.2938329 0.8746824
vt 0.2839797 0.8821626
vt 0.2968976 0.8609946
vt 0.2442055 0.9131168
vt 0.2302901 0.9146858
vt 0.2352089 0.9037023
vt 0.2491242 0.9021332
vt 0.2371427 0.9272385
vt 0.2302901 0.9146858
vt 0.2442055 0.9131168
vt 0.2839797 0.8821626
vt 0.2663882 0.8721417
vt 0.2607812 0.8523437
vt 0.2783726 0.8623646
vt 0.260944 0.8903256
vt 0.2663882 0.8721417
vt 0.2839797 0.8821626
vt 0.2746577 0.8903256
vt 0.260944 0.8903256
vt 0.2839797 0.8821626
vt 0.2371427 0.9272385
vt 0.2302901 0.9397911
vt 0.2234375 0.9272385
vt 0.2302901 0.9146858
vt 0.2442055 0.9413602
vt 0.2302901 0.9397911
vt 0.2371427 0.9272385
vt 0.3234375 0.8867679
vt 0.3101676 0.8711594
vt 0.3101676 0.8523437
vt 0.3234375 0.8679522
vt 0.2968976 0.886768
vt 0.3101676 0.8711594
vt 0.3234375 0.8867679
vt 0.3101676 0.8917499
vt 0.2968976 0.886768
vt 0.3234375 0.8867679
vt 0.2442055 0.9413602
vt 0.2491242 0.9523438
vt 0.2352089 0.9507747
vt 0.2302901 0.9397911
vt 0.2356359 0.8644158
vt 0.2351245 0.8523437
vt 0.2482085 0.8578221
vt 0.2968976 0.886768
vt 0.2968976 0.8679522
vt 0.3101676 0.8523437
vt 0.3101676 0.8711594
vt 0.2839797 0.9201444
vt 0.2783726 0.9003465
vt 0.2968976 0.8989764
vt 0.2938329 0.9126643
vt 0.2839797 0.9201444
vt 0.2968976 0.8989764
vt 0.2356359 0.8644158
vt 0.2239488 0.872308
vt 0.2234375 0.8602359
vt 0.2351245 0.8523437
vt 0.2356359 0.8802819
vt 0.2239488 0.872308
vt 0.2356359 0.8644158
vt 0.2482085 0.8736881
vt 0.2356359 0.8802819
vt 0.2356359 0.8644158
vt 0.2482085 0.8895541
vt 0.2607812 0.8829604
vt 0.2607812 0.8670944
vt 0.2482085 0.8578221
usemtl Colorful_Map_Gems_1A
f 3/3/3 2/2/2 1/1/1
f 4/4/4 3/3/3 1/1/1
f 7/7/7 6/6/6 5/5/5
f 10/10/10 9/9/9 8/8/8
f 13/13/13 12/12/12 11/11/11
f 14/14/14 13/13/13 11/11/11
f 17/17/17 16/16/16 15/15/15
f 20/20/20 19/19/19 18/18/18
f 21/21/21 20/20/20 18/18/18
f 24/24/24 23/23/23 22/22/22
f 27/27/27 26/26/26 25/25/25
f 30/30/30 29/29/29 28/28/28
f 31/31/31 30/30/30 28/28/28
f 34/34/34 33/33/33 32/32/32
f 37/37/37 36/36/36 35/35/35
f 38/38/38 37/37/37 35/35/35
f 41/41/41 40/40/40 39/39/39
f 44/44/44 43/43/43 42/42/42
f 47/47/47 46/46/46 45/45/45
f 48/48/48 47/47/47 45/45/45
f 51/51/51 50/50/50 49/49/49
f 54/54/54 53/53/53 52/52/52
f 55/55/55 54/54/54 52/52/52
f 58/58/58 57/57/57 56/56/56
f 61/61/61 60/60/60 59/59/59
f 64/64/64 63/63/63 62/62/62
f 65/65/65 64/64/64 62/62/62
f 68/68/68 67/67/67 66/66/66
f 71/71/71 70/70/70 69/69/69
f 72/72/72 71/71/71 69/69/69
f 75/75/75 74/74/74 73/73/73
f 78/78/78 77/77/77 76/76/76
f 81/81/81 80/80/80 79/79/79
f 82/82/82 81/81/81 79/79/79
f 85/85/85 84/84/84 83/83/83
f 88/88/88 87/87/87 86/86/86
f 89/89/89 88/88/88 86/86/86
f 92/92/92 91/91/91 90/90/90
f 95/95/95 94/94/94 93/93/93
f 98/98/98 97/97/97 96/96/96
f 99/99/99 98/98/98 96/96/96
f 102/102/102 101/101/101 100/100/100
f 105/105/105 104/104/104 103/103/103
f 106/106/106 103/103/103 104/104/104
f 107/107/107 106/106/106 104/104/104
f 108/108/108 107/107/107 104/104/104
f 109/109/109 108/108/108 104/104/104
f 105/105/105 109/109/109 104/104/104
f 112/112/112 111/111/111 110/110/110
f 113/113/113 112/112/112 110/110/110
f 116/116/116 115/115/115 114/114/114
f 119/119/119 118/118/118 117/117/117
f 122/122/122 121/121/121 120/120/120
f 123/123/123 122/122/122 120/120/120
f 126/126/126 125/125/125 124/124/124
f 129/129/129 128/128/128 127/127/127
f 130/130/130 129/129/129 127/127/127
f 133/133/133 132/132/132 131/131/131
f 136/136/136 135/135/135 134/134/134
f 139/139/139 138/138/138 137/137/137
f 140/140/140 139/139/139 137/137/137
f 143/143/143 142/142/142 141/141/141
f 146/146/146 145/145/145 144/144/144
f 147/147/147 146/146/146 144/144/144
f 150/150/150 149/149/149 148/148/148
f 153/153/153 152/152/152 151/151/151
f 156/156/156 155/155/155 154/154/154
f 157/157/157 156/156/156 154/154/154
f 160/160/160 159/159/159 158/158/158
f 163/163/163 162/162/162 161/161/161
f 164/164/164 163/163/163 161/161/161
f 167/167/167 166/166/166 165/165/165
f 170/170/170 169/169/169 168/168/168
f 173/173/173 172/172/172 171/171/171
f 174/174/174 173/173/173 171/171/171
f 177/177/177 176/176/176 175/175/175
f 180/180/180 179/179/179 178/178/178
f 181/181/181 180/180/180 178/178/178
f 184/184/184 183/183/183 182/182/182
f 187/187/187 186/186/186 185/185/185
f 190/190/190 189/189/189 188/188/188
f 191/191/191 190/190/190 188/188/188
f 194/194/194 193/193/193 192/192/192
f 197/197/197 196/196/196 195/195/195
f 198/198/198 197/197/197 195/195/195
f 201/201/201 200/200/200 199/199/199
f 204/204/204 203/203/203 202/202/202
f 207/207/207 206/206/206 205/205/205
f 208/208/208 207/207/207 205/205/205
f 211/211/211 210/210/210 209/209/209
f 214/214/214 213/213/213 212/212/212
f 215/215/215 212/212/212 213/213/213
f 216/216/216 212/212/212 215/215/215
f 217/217/217 212/212/212 216/216/216
f 218/218/218 212/212/212 217/217/217
f 214/214/214 212/212/212 218/218/218
