# Blender v2.92.0 OBJ File: ''
# www.blender.org
mtllib cross.mtl
o Cube
v 0.152403 0.260941 -0.704223
v -0.152403 0.260941 -0.704223
v 0.152403 0.571898 -0.704223
v -0.152403 0.571898 -0.704223
v -0.152403 1.000000 -0.155604
v 0.152403 -1.000000 -0.155604
v -0.152403 0.260941 -0.155604
v -0.152403 0.571898 -0.155604
v -0.152403 -1.000000 -0.155604
v 0.152403 1.000000 -0.155604
v 0.152403 0.260941 -0.155604
v 0.152403 0.571898 -0.155604
v 0.152403 0.260941 0.704223
v -0.152403 0.260941 0.704223
v 0.152403 0.571898 0.704223
v -0.152403 0.571898 0.704223
v -0.152403 -1.000000 0.000000
v 0.152403 1.000000 0.000000
v -0.152403 1.000000 0.000000
v 0.152403 -1.000000 0.000000
v 0.152403 0.260941 0.000000
v -0.152403 0.260941 0.000000
v 0.152403 0.571898 0.000000
v -0.152403 0.571898 0.000000
v -0.152403 1.000000 0.155604
v 0.152403 -1.000000 0.155604
v -0.152403 0.260941 0.155604
v -0.152403 0.571898 0.155604
v -0.152403 -1.000000 0.155604
v 0.152403 1.000000 0.155604
v 0.152403 0.260941 0.155604
v 0.152403 0.571898 0.155604
vt 0.562500 0.500000
vt 0.562500 0.187500
vt 0.562500 0.562500
vt 0.500000 0.562500
vt 0.500000 0.250000
vt 0.500000 0.500000
vt 0.562500 0.250000
vt 0.500000 0.187500
vt 0.500000 0.625000
vt 0.375000 0.625000
vt 0.375000 0.562500
vt 0.625000 0.562500
vt 0.562500 0.625000
vt 0.125000 0.625000
vt 0.125000 0.562500
vt 0.875000 0.562500
vt 0.625000 0.625000
vt 0.375000 0.187500
vt 0.562500 0.125000
vt 0.500000 0.125000
vt 0.375000 0.125000
vt 0.625000 0.125000
vt 0.875000 0.625000
vt 0.625000 0.187500
vt 0.562500 0.500000
vt 0.562500 0.562500
vt 0.562500 0.187500
vt 0.500000 0.562500
vt 0.500000 0.500000
vt 0.500000 0.250000
vt 0.562500 0.250000
vt 0.500000 0.187500
vt 0.375000 0.562500
vt 0.625000 0.562500
vt 0.125000 0.562500
vt 0.875000 0.562500
vt 0.375000 0.187500
vt 0.625000 0.187500
vn 0.0000 1.0000 0.0000
vn 0.0000 -1.0000 0.0000
vn 0.0000 0.0000 -1.0000
vn -1.0000 0.0000 0.0000
vn 1.0000 0.0000 0.0000
vn 0.0000 0.0000 1.0000
usemtl Material
s off
f 3/1/1 8/2/1 12/3/1
f 11/4/2 2/5/2 1/6/2
f 4/7/3 1/6/3 2/5/3
f 8/2/4 2/5/4 7/8/4
f 12/3/5 21/9/5 11/4/5
f 11/4/5 20/10/5 6/11/5
f 10/12/5 23/13/5 12/3/5
f 6/11/2 17/14/2 9/15/2
f 5/16/1 18/17/1 10/12/1
f 11/4/3 9/18/3 7/8/3
f 3/1/5 11/4/5 1/6/5
f 24/19/4 7/8/4 22/20/4
f 22/20/4 9/18/4 17/21/4
f 19/22/4 8/2/4 24/19/4
f 8/2/3 10/12/3 12/3/3
f 3/1/1 4/7/1 8/2/1
f 11/4/2 7/8/2 2/5/2
f 4/7/3 3/1/3 1/6/3
f 8/2/4 4/7/4 2/5/4
f 12/3/5 23/13/5 21/9/5
f 11/4/5 21/9/5 20/10/5
f 10/12/5 18/17/5 23/13/5
f 6/11/2 20/10/2 17/14/2
f 5/16/1 19/23/1 18/17/1
f 11/4/3 6/11/3 9/18/3
f 3/1/5 12/3/5 11/4/5
f 24/19/4 8/2/4 7/8/4
f 22/20/4 7/8/4 9/18/4
f 19/22/4 5/24/4 8/2/4
f 8/2/3 5/16/3 10/12/3
f 15/25/1 32/26/1 28/27/1
f 31/28/2 13/29/2 14/30/2
f 16/31/6 14/30/6 13/29/6
f 28/27/4 27/32/4 14/30/4
f 32/26/5 31/28/5 21/9/5
f 31/28/5 26/33/5 20/10/5
f 30/34/5 32/26/5 23/13/5
f 26/33/2 29/35/2 17/14/2
f 25/36/1 30/34/1 18/17/1
f 31/28/6 27/32/6 29/37/6
f 15/25/5 13/29/5 31/28/5
f 24/19/4 22/20/4 27/32/4
f 22/20/4 17/21/4 29/37/4
f 19/22/4 24/19/4 28/27/4
f 28/27/6 32/26/6 30/34/6
f 15/25/1 28/27/1 16/31/1
f 31/28/2 14/30/2 27/32/2
f 16/31/6 13/29/6 15/25/6
f 28/27/4 14/30/4 16/31/4
f 32/26/5 21/9/5 23/13/5
f 31/28/5 20/10/5 21/9/5
f 30/34/5 23/13/5 18/17/5
f 26/33/2 17/14/2 20/10/2
f 25/36/1 18/17/1 19/23/1
f 31/28/6 29/37/6 26/33/6
f 15/25/5 31/28/5 32/26/5
f 24/19/4 27/32/4 28/27/4
f 22/20/4 29/37/4 27/32/4
f 19/22/4 28/27/4 25/38/4
f 28/27/6 30/34/6 25/36/6
