# Blender v2.93.6 OBJ File: ''
# www.blender.org
mtllib untitled.mtl
o Cube
v 0.750000 8.000000 -0.500000
v 0.750000 -2.000000 -0.500000
v 0.750000 8.000000 0.500000
v 0.750000 -2.000000 0.500000
v -0.750000 8.000000 -0.500000
v -0.750000 -2.000000 -0.500000
v -0.750000 8.000000 0.500000
v -0.750000 -2.000000 0.500000
v -3.000000 4.750000 0.500000
v -3.000000 6.000000 0.500000
v -3.000000 4.750000 -0.500000
v -3.000000 6.000000 -0.500000
v -0.750000 4.750000 0.500000
v -0.750000 6.000000 0.500000
v -0.750000 4.750000 -0.500000
v -0.750000 6.000000 -0.500000
v 0.750000 4.750000 0.500000
v 0.750000 6.000000 0.500000
v 0.750000 4.750000 -0.500000
v 0.750000 6.000000 -0.500000
v 3.000000 4.750000 0.500000
v 3.000000 6.000000 0.500000
v 3.000000 4.750000 -0.500000
v 3.000000 6.000000 -0.500000
vt 0.875000 0.500000
vt 0.625000 0.750000
vt 0.625000 0.500000
vt 0.000000 0.000000
vt 0.000000 0.000000
vt 0.000000 0.000000
vt 0.000000 0.000000
vt 0.875000 0.750000
vt 0.375000 0.500000
vt 0.125000 0.750000
vt 0.125000 0.500000
vt 0.000000 0.000000
vt 0.000000 0.000000
vt 0.000000 0.000000
vt 0.375000 0.000000
vt 0.625000 0.000000
vt 0.375000 0.250000
vt 0.625000 0.250000
vt 0.000000 0.000000
vt 0.000000 0.000000
vt 0.000000 0.000000
vt 0.000000 0.000000
vt 0.625000 0.000000
vt 0.375000 0.250000
vt 0.375000 0.000000
vt 0.625000 0.250000
vt 0.375000 0.500000
vt 0.625000 0.500000
vt 0.375000 0.750000
vt 0.000000 0.000000
vt 0.000000 0.000000
vt 0.125000 0.750000
vt 0.125000 0.500000
vt 0.625000 1.000000
vt 0.625000 0.750000
vt 0.375000 0.750000
vt 0.000000 0.000000
vt 0.000000 0.000000
vt 0.000000 0.000000
vt 0.875000 0.750000
vt 0.875000 0.500000
vt 0.375000 1.000000
vn 0.0000 1.0000 0.0000
vn 0.0000 0.0000 1.0000
vn -1.0000 0.0000 0.0000
vn 0.0000 -1.0000 0.0000
vn 1.0000 0.0000 0.0000
vn 0.0000 0.0000 -1.0000
usemtl Material
s off
f 5/1/1 3/2/1 1/3/1
f 17/4/2 14/5/2 13/6/2
f 16/7/3 7/8/3 5/1/3
f 2/9/4 8/10/4 6/11/4
f 4/12/5 19/13/5 17/4/5
f 7/8/2 18/14/2 3/2/2
f 9/15/2 14/5/2 10/16/2
f 16/7/6 11/17/6 12/18/6
f 10/16/1 16/7/1 12/18/1
f 8/10/3 15/19/3 6/11/3
f 13/6/4 11/17/4 15/19/4
f 12/20/5 9/21/5 11/22/5
f 18/23/3 19/24/3 17/25/3
f 20/26/6 23/27/6 19/24/6
f 24/28/5 21/29/5 23/27/5
f 1/30/5 18/14/5 20/31/5
f 23/27/4 17/32/4 19/33/4
f 18/34/2 21/29/2 22/35/2
f 17/4/2 8/10/2 4/36/2
f 6/11/6 19/13/6 2/9/6
f 15/19/6 20/31/6 19/13/6
f 20/31/6 5/1/6 1/3/6
f 5/1/1 7/8/1 3/2/1
f 17/4/2 18/14/2 14/5/2
f 16/7/3 14/5/3 7/8/3
f 2/9/4 4/36/4 8/10/4
f 4/12/5 2/37/5 19/13/5
f 7/8/2 14/5/2 18/14/2
f 9/15/2 13/6/2 14/5/2
f 16/7/6 15/19/6 11/17/6
f 10/16/1 14/5/1 16/7/1
f 8/10/3 13/6/3 15/19/3
f 13/6/4 9/15/4 11/17/4
f 12/20/5 10/38/5 9/21/5
f 20/26/6 24/28/6 23/27/6
f 24/28/5 22/35/5 21/29/5
f 18/23/3 20/26/3 19/24/3
f 23/27/4 21/29/4 17/32/4
f 1/30/5 3/39/5 18/14/5
f 17/4/2 13/6/2 8/10/2
f 6/11/6 15/19/6 19/13/6
f 15/19/6 16/7/6 20/31/6
f 20/31/6 16/7/6 5/1/6
f 18/40/1 24/28/1 20/41/1
f 18/34/2 17/42/2 21/29/2
f 18/40/1 22/35/1 24/28/1
l 1 2
l 8 7
l 3 4
l 5 6
