# Blender v2.92.0 OBJ File: ''
# www.blender.org
mtllib cube.mtl
o Cube.001
v 1.000000 1.000000 -1.000000
v 1.000000 -1.000000 -1.000000
v -1.000000 -1.000000 -1.000000
v -1.000000 1.000000 -1.000000
v -1.000000 -1.000000 1.000000
v -1.000000 1.000000 1.000000
v 1.000000 -1.000000 1.000000
v 0.999999 1.000000 1.000001
vt -32.240238 -9.895399
vt -32.240845 -31.606033
vt -10.527168 -31.606556
vt -10.525431 -9.894180
vt 11.184336 -31.605862
vt 11.185638 -9.894352
vt 32.903137 -31.606384
vt 32.902439 -9.895309
vt 54.615845 -31.605682
vt 54.615768 -9.894619
vt -10.525604 11.819847
vt 11.185638 11.820019
vt -10.524305 -53.319977
vt 11.182163 -53.317795
vn 0.0000 0.0000 -1.0000
vn -1.0000 0.0000 0.0000
vn 0.0000 -0.0000 1.0000
vn 1.0000 0.0000 0.0000
vn 0.0000 1.0000 0.0000
vn 0.0000 -1.0000 -0.0000
usemtl Material.001
s 1
f 1/1/1 2/2/1 3/3/1
f 1/1/1 3/3/1 4/4/1
f 5/5/2 6/6/2 4/4/2
f 5/5/2 4/4/2 3/3/2
f 7/7/3 8/8/3 5/5/3
f 8/8/3 6/6/3 5/5/3
f 2/9/4 1/10/4 7/7/4
f 1/10/4 8/8/4 7/7/4
f 1/11/5 4/4/5 8/12/5
f 4/4/5 6/6/5 8/12/5
f 2/13/6 7/14/6 5/5/6
f 2/13/6 5/5/6 3/3/6
