# Blender v2.93.5 OBJ File: 'Sepultura.blend'
# www.blender.org
mtllib Sepultura.mtl
o Sepultura_Cube
v 1.743093 -0.313502 -1.168185
v 1.743093 -0.313502 1.168185
v -1.743093 -0.313502 1.168185
v -1.743092 -0.313502 -1.168185
v 1.743094 0.313502 -1.168184
v 1.743092 0.313502 1.168185
v -1.743093 0.313502 1.168184
v -1.743093 0.313502 -1.168185
v 1.554206 0.313502 -1.000911
v 1.554205 0.313502 1.000912
v -1.554206 0.313502 -1.000911
v -1.554206 0.313502 1.000911
v 1.554206 0.633225 -1.000911
v 1.554205 0.633225 1.000912
v -1.554206 0.633225 -1.000911
v -1.554206 0.633225 1.000911
v 1.176991 0.633225 -0.350548
v 1.176990 0.633225 0.350549
v -1.176990 0.633225 -0.350549
v -1.176991 0.633225 0.350549
v 1.176991 3.654749 -0.350548
v 1.176990 3.654749 0.350549
v -1.176990 3.654749 -0.350549
v -1.176991 3.654749 0.350549
v 0.000000 4.189704 -0.350549
v -0.000001 4.189704 0.350549
vt 0.561466 0.890093
vt 0.280733 0.890093
vt 0.280733 0.449488
vt 0.561466 0.449488
vt 0.000000 0.890093
vt 0.260634 0.866220
vt 0.280733 0.890093
vt 0.884862 0.295284
vt 0.960202 0.000000
vt 0.960202 0.295284
vt 0.641038 0.440604
vt 0.716377 0.000000
vt 0.716377 0.440604
vt 0.886243 0.744772
vt 0.961583 0.449488
vt 0.961583 0.744772
vt 0.641038 0.000000
vt 0.565699 0.440604
vt 0.565698 0.000000
vt 0.840418 1.000000
vt 0.802001 0.746998
vt 0.840418 0.746998
vt 0.260634 0.473361
vt 0.280733 0.449488
vt 0.000000 0.449489
vt 0.020099 0.866220
vt 0.020099 0.473361
vt 0.561466 0.449489
vt 0.639612 0.794673
vt 0.561466 0.842347
vt 0.960202 0.000000
vt 0.998619 0.392859
vt 0.960202 0.392859
vt 0.961583 0.449488
vt 1.000000 0.842347
vt 0.961583 0.842347
vt 0.924661 0.997774
vt 0.886243 0.744772
vt 0.924661 0.744772
vt 0.884862 0.000000
vt 0.800620 0.381878
vt 0.800620 0.000000
vt 0.723855 0.497163
vt 0.639612 0.497163
vt 0.802001 0.842347
vt 0.723855 0.794673
vt 0.802001 0.449488
vt 0.000000 0.067611
vt 0.141425 0.000000
vt 0.282849 0.067611
vt 0.565698 0.381878
vt 0.424274 0.449488
vt 0.282849 0.381878
vt 0.800620 0.000000
vt 0.716377 0.381878
vt 0.716377 0.000000
vt 0.886243 0.746998
vt 0.802001 0.598243
vt 0.886243 0.598243
vt 0.802001 0.449489
vt 0.886243 0.449488
vt 0.884862 0.000000
vt 0.641038 0.000000
vt 0.886243 0.449488
vt 0.641038 0.440604
vt 0.802001 1.000000
vt 0.998619 0.000000
vt 1.000000 0.449488
vt 0.886243 0.997774
vt 0.884862 0.381878
vt 0.282849 0.449488
vt 0.000000 0.449488
vt 0.282849 0.000000
vt 0.565698 0.000000
vt 0.800620 0.381878
vt 0.802001 0.746998
vn 0.0000 -1.0000 0.0000
vn 0.0000 1.0000 0.0000
vn 1.0000 -0.0000 0.0000
vn -0.0000 -0.0000 1.0000
vn -1.0000 -0.0000 -0.0000
vn 0.0000 0.0000 -1.0000
vn -0.4138 0.9104 -0.0000
vn 0.4138 0.9104 0.0000
usemtl Textura
s off
f 1/1/1 2/2/1 3/3/1 4/4/1
f 7/5/2 11/6/2 8/7/2
f 5/8/3 2/9/3 1/10/3
f 6/11/4 3/12/4 2/13/4
f 7/14/5 4/15/5 3/16/5
f 1/17/6 8/18/6 5/19/6
f 12/20/5 15/21/5 11/22/5
f 8/7/2 9/23/2 5/24/2
f 6/25/2 12/26/2 7/5/2
f 5/24/2 10/27/2 6/25/2
f 14/28/2 20/29/2 16/30/2
f 11/31/6 13/32/6 9/33/6
f 10/34/4 16/35/4 12/36/4
f 9/37/3 14/38/3 10/39/3
f 20/40/5 23/41/5 19/42/5
f 14/28/2 17/43/2 18/44/2
f 15/45/2 20/29/2 19/46/2
f 15/45/2 17/43/2 13/47/2
f 23/48/6 25/49/6 21/50/6
f 22/51/4 26/52/4 24/53/4
f 17/54/3 22/55/3 18/56/3
f 23/57/7 26/58/7 25/59/7
f 25/59/8 22/60/8 21/61/8
f 7/5/2 12/26/2 11/6/2
f 5/8/3 6/62/3 2/9/3
f 6/11/4 7/63/4 3/12/4
f 7/14/5 8/64/5 4/15/5
f 1/17/6 4/65/6 8/18/6
f 12/20/5 16/66/5 15/21/5
f 8/7/2 11/6/2 9/23/2
f 6/25/2 10/27/2 12/26/2
f 5/24/2 9/23/2 10/27/2
f 14/28/2 18/44/2 20/29/2
f 11/31/6 15/67/6 13/32/6
f 10/34/4 14/68/4 16/35/4
f 9/37/3 13/69/3 14/38/3
f 20/40/5 24/70/5 23/41/5
f 14/28/2 13/47/2 17/43/2
f 15/45/2 16/30/2 20/29/2
f 15/45/2 19/46/2 17/43/2
f 21/50/6 17/71/6 19/72/6
f 19/72/6 23/48/6 21/50/6
f 24/53/4 20/73/4 18/74/4
f 18/74/4 22/51/4 24/53/4
f 17/54/3 21/75/3 22/55/3
f 23/57/7 24/76/7 26/58/7
f 25/59/8 26/58/8 22/60/8
