# Blender v3.0.0 OBJ File: 'untitled.blend'
# www.blender.org
mtllib untitled.mtl
o Cube
v 0.000000 1.000000 -1.000000
v 1.000000 -1.000000 -1.000000
v 1.000000 1.000000 1.000000
v 1.000000 -1.000000 1.000000
v -0.500000 1.000000 -1.000000
v -1.000000 -1.000000 -1.000000
v -1.000000 1.000000 1.000000
v -1.000000 -1.000000 1.000000
v -1.000000 -1.000000 0.000000
v 1.000000 1.000000 0.000000
v -1.000000 1.000000 0.000000
v 1.000000 -1.000000 0.000000
v 1.000000 0.000000 -1.000000
v -1.000000 0.000000 1.000000
v 1.000000 0.000000 1.000000
v -1.000000 0.000000 -1.000000
v -0.500000 -1.000000 -3.022129
v -1.000000 0.000000 0.000000
v 0.000000 -1.000000 -1.000000
v 0.000000 1.000000 1.000000
v 0.000000 -1.000000 1.000000
v 0.500000 1.000000 -1.000000
v 0.000000 -1.000000 0.000000
v 0.000000 3.393456 0.000000
v 0.000000 0.000000 1.000000
v 0.500000 -1.000000 1.000000
v -1.000000 1.000000 -1.000000
v 0.500000 1.000000 0.000000
v 0.500000 -1.000000 -1.000000
v 0.500000 1.000000 1.000000
v 0.500000 -1.000000 0.000000
v 0.500000 0.000000 1.000000
v -0.500000 -1.000000 -1.000000
v -0.500000 1.000000 1.000000
v -0.500000 -1.000000 0.000000
v -0.500000 0.000000 1.000000
v -0.500000 -1.000000 1.000000
v 1.000000 1.000000 -1.000000
v -0.500000 1.000000 0.000000
v -1.000000 1.000000 -0.500000
v 1.000000 -1.000000 -0.500000
v -1.000000 -1.000000 -0.500000
v 1.000000 1.000000 -0.500000
v 1.000000 0.000000 -0.500000
v -1.000000 0.000000 -0.500000
v 0.000000 1.000000 -0.500000
v 0.000000 -1.000000 -0.500000
v 0.500000 1.000000 -0.500000
v 0.500000 -1.000000 -0.500000
v -0.500000 -1.000000 -0.500000
v -0.500000 1.000000 -0.500000
v -1.000000 -1.000000 0.500000
v 1.000000 1.000000 0.500000
v -1.000000 1.000000 0.500000
v 1.000000 -1.000000 0.500000
v -1.000000 0.000000 0.500000
v 1.000000 0.000000 0.500000
v 0.000000 -1.000000 0.500000
v 0.000000 1.000000 0.500000
v 0.500000 1.000000 0.500000
v 0.500000 -1.000000 0.500000
v -0.500000 -1.000000 0.500000
v -0.500000 1.000000 0.500000
v -1.000000 0.500000 1.000000
v 1.000000 0.500000 -1.000000
v 1.000000 0.500000 1.000000
v -1.000000 0.500000 -1.000000
v 1.000000 0.500000 0.000000
v -1.000000 0.500000 0.000000
v 0.000000 0.500000 1.000000
v 0.500000 0.500000 1.000000
v -0.500000 0.500000 1.000000
v -1.000000 0.500000 -0.500000
v -1.000000 0.500000 0.500000
v 2.517617 -1.000000 0.500000
v 2.517617 -1.000000 0.000000
v 2.517617 0.000000 0.000000
v 2.517617 0.500000 0.000000
v 2.517617 0.000000 -0.500000
v 2.517617 -1.000000 -0.500000
v 2.517617 0.000000 0.500000
v -1.000000 -1.000000 -3.022129
v 1.000000 0.000000 -3.022129
v 1.000000 -1.000000 -3.022129
v -1.000000 0.000000 -3.022129
v 0.000000 1.000000 -3.022129
v 1.000000 0.500000 -3.022129
v -1.000000 0.500000 -3.022129
v 0.500000 0.000000 -3.022129
v 0.500000 -1.000000 -3.022129
v 0.000000 -1.000000 -3.022129
v -0.500000 0.000000 -3.022129
v 0.000000 0.000000 -3.022129
v 0.000000 0.500000 -3.022129
v 0.500000 0.500000 -3.022129
v -0.500000 0.500000 -3.022129
v 0.500000 2.196728 0.500000
v 0.500000 2.196728 0.000000
v 0.000000 2.196728 -0.500000
v -0.500000 2.196728 -0.500000
v -0.500000 2.196728 0.000000
v 0.500000 2.196728 -0.500000
v -0.500000 2.196728 0.500000
v 0.000000 2.196728 0.500000
vt 0.983084 0.085663
vt 0.977967 0.090780
vt 0.977967 0.085663
vt 0.962616 0.106131
vt 0.957499 0.111248
vt 0.957499 0.106131
vt 0.911447 0.029377
vt 0.911447 0.029377
vt 0.911447 0.029377
vt 0.942149 0.085663
vt 0.937032 0.090780
vt 0.937032 0.085663
vt 0.962616 0.085663
vt 0.957499 0.090780
vt 0.957499 0.085663
vt 0.911447 0.029377
vt 0.962616 0.070313
vt 0.957499 0.075429
vt 0.962616 0.075429
vt 0.962616 0.080546
vt 0.942149 0.075429
vt 0.937032 0.080546
vt 0.937032 0.075429
vt 0.962616 0.034494
vt 0.957499 0.039611
vt 0.957499 0.034494
vt 0.983084 0.075429
vt 0.977967 0.080546
vt 0.977967 0.075429
vt 0.952382 0.034494
vt 0.942149 0.039611
vt 0.942149 0.034494
vt 0.952382 0.075429
vt 0.942149 0.075429
vt 0.952382 0.070313
vt 0.957499 0.070313
vt 0.957499 0.070313
vt 0.952382 0.085663
vt 0.942149 0.090780
vt 0.952382 0.044728
vt 0.942149 0.049845
vt 0.942149 0.044728
vt 0.952382 0.106131
vt 0.942149 0.111248
vt 0.942149 0.106131
vt 0.952382 0.095897
vt 0.942149 0.101014
vt 0.942149 0.095897
vt 0.046467 0.899485
vt 0.037838 0.899485
vt 0.037838 0.899485
vt 0.055096 0.942631
vt 0.063725 0.942631
vt 0.055096 0.942631
vt 0.931915 0.075429
vt 0.926798 0.080546
vt 0.926798 0.075429
vt 0.952382 0.049845
vt 0.942149 0.049845
vt 0.931915 0.085663
vt 0.926798 0.090780
vt 0.926798 0.085663
vt 0.962616 0.095897
vt 0.957499 0.101014
vt 0.957499 0.095897
vt 0.972850 0.085663
vt 0.967733 0.090780
vt 0.967733 0.085663
vt 0.962616 0.090780
vt 0.967733 0.075429
vt 0.952382 0.090780
vt 0.926798 0.070313
vt 0.931915 0.070313
vt 0.931915 0.070313
vt 0.931915 0.080546
vt 0.911447 0.029377
vt 0.931915 0.090780
vt 0.921681 0.090780
vt 0.921681 0.085663
vt 0.046467 0.934002
vt 0.037838 0.934002
vt 0.046467 0.934002
vt 0.921681 0.080546
vt 0.921681 0.075429
vt 0.911447 0.029377
vt 0.911447 0.029377
vt 0.911447 0.029377
vt 0.952382 0.101014
vt 0.072354 0.942631
vt 0.072354 0.951260
vt 0.072354 0.942631
vt 0.962616 0.101014
vt 0.972850 0.090780
vt 0.972850 0.075429
vt 0.911447 0.029377
vt 0.921681 0.070313
vt 0.937032 0.070313
vt 0.952382 0.039611
vt 0.942149 0.070313
vt 0.962616 0.039611
vt 0.957499 0.044728
vt 0.055096 0.959889
vt 0.055096 0.951260
vt 0.055096 0.959889
vt 0.967733 0.080546
vt 0.063725 0.942631
vt 0.942149 0.080546
vt 0.942149 0.080546
vt 0.952382 0.029377
vt 0.942149 0.029377
vt 0.962616 0.029377
vt 0.957499 0.029377
vt 0.957499 0.080546
vt 0.983084 0.080546
vt 0.942149 0.085663
vt 0.911447 0.029377
vt 0.937032 0.070313
vt 0.952382 0.070313
vt 0.029209 0.959889
vt 0.037838 0.959889
vt 0.037838 0.959889
vt 0.926798 0.070313
vt 0.952382 0.111248
vt 0.952382 0.075429
vt 0.952382 0.080546
vt 0.957499 0.085663
vt 0.952382 0.085663
vt 0.957499 0.080546
vt 0.037838 0.942631
vt 0.029209 0.942631
vt 0.029209 0.942631
vt 0.957499 0.065196
vt 0.962616 0.070313
vt 0.952382 0.065196
vt 0.942149 0.070313
vt 0.942149 0.065196
vt 0.952382 0.054962
vt 0.942149 0.060079
vt 0.942149 0.054962
vt 0.957499 0.054962
vt 0.962616 0.060079
vt 0.957499 0.060079
vt 0.952382 0.060079
vt 0.962616 0.065196
vt 0.957499 0.049845
vt 0.962616 0.054962
vt 0.952382 0.049845
vt 0.957499 0.049845
vt 0.072354 0.959889
vt 0.072354 0.951260
vt 0.055096 0.951260
vt 0.063725 0.959889
vt 0.063725 0.959889
vt 0.072354 0.959889
vt 0.962616 0.049845
vt 0.977967 0.085663
vt 0.972850 0.085663
vt 0.967733 0.080546
vt 0.977967 0.080546
vt 0.972850 0.075429
vt 0.967733 0.085663
vt 0.977967 0.075429
vt 0.967733 0.075429
vt 0.983084 0.090780
vt 0.962616 0.111248
vt 0.046467 0.899485
vt 0.037838 0.934002
vt 0.911447 0.029377
vt 0.962616 0.044728
vt 0.029209 0.959889
vt 0.921681 0.070313
vt 0.037838 0.942631
vn 0.0000 1.0000 0.0000
vn 0.0000 0.0000 1.0000
vn 0.0000 -1.0000 0.0000
vn 1.0000 0.0000 0.0000
vn 0.0000 0.0000 -1.0000
vn -1.0000 0.0000 0.0000
vn -0.4472 0.8944 0.0000
vn 0.0000 0.3855 -0.9227
vn 0.4472 0.8944 0.0000
vn -0.9227 0.3855 0.0000
vn 0.9227 0.3855 0.0000
vn 0.0000 0.7071 0.7071
vn 0.0000 0.7071 -0.7071
vn 0.0000 0.3855 0.9227
usemtl Material
s off
f 54/1/1 34/2/1 63/3/1
f 34/4/2 64/5/2 72/6/2
f 22/7/1 43/8/1 38/9/1
f 55/10/3 26/11/3 61/12/3
f 53/13/4 66/14/4 68/15/4
f 38/9/5 65/16/5 1/17/5
f 68/18/4 43/19/4 10/20/4
f 41/21/3 31/22/3 49/23/3
f 54/24/6 69/25/6 74/26/6
f 40/27/1 39/28/1 51/29/1
f 56/30/6 9/31/6 52/32/6
f 44/33/5 80/34/5 41/21/5
f 13/35/4 87/36/4 65/37/4
f 57/38/4 4/39/4 55/10/4
f 45/40/6 6/41/6 42/42/6
f 36/43/2 8/44/2 37/45/2
f 32/46/2 21/47/2 26/48/2
f 1/49/7 88/50/7 67/51/7
f 102/52/8 99/53/8 24/54/8
f 47/55/3 35/56/3 50/57/3
f 16/58/6 82/59/6 6/41/6
f 58/60/3 37/61/3 62/62/3
f 30/63/2 70/64/2 71/65/2
f 59/66/1 30/67/1 60/68/1
f 60/68/1 3/69/1 53/13/1
f 3/69/2 71/65/2 66/14/2
f 48/70/1 10/20/1 43/19/1
f 15/71/2 26/48/2 4/39/2
f 33/72/3 91/73/3 19/74/3
f 49/23/3 23/75/3 47/55/3
f 1/76/1 48/70/1 22/7/1
f 61/12/3 21/77/3 58/60/3
f 62/62/3 8/78/3 52/79/3
f 1/80/9 87/81/9 86/82/9
f 50/57/3 9/83/3 42/84/3
f 40/85/4 67/86/4 27/87/4
f 25/88/2 37/45/2 21/47/2
f 100/89/10 101/90/10 24/91/10
f 20/92/2 72/6/2 70/64/2
f 63/3/1 20/93/1 59/66/1
f 46/94/1 5/95/1 51/29/1
f 33/72/3 42/84/3 6/96/3
f 29/97/3 47/55/3 19/74/3
f 19/74/3 50/57/3 33/72/3
f 18/98/6 42/42/6 9/31/6
f 13/35/4 41/21/4 2/99/4
f 51/29/3 27/87/3 5/95/3
f 2/99/3 49/23/3 29/97/3
f 11/100/6 73/101/6 69/25/6
f 97/102/11 98/103/11 24/104/11
f 35/56/3 52/79/3 9/83/3
f 31/22/3 58/60/3 23/75/3
f 28/105/1 53/13/1 10/20/1
f 99/53/8 100/89/8 24/106/8
f 23/75/3 62/62/3 35/56/3
f 41/21/3 76/107/3 12/108/3
f 14/109/6 52/32/6 8/110/6
f 7/111/6 74/26/6 64/112/6
f 68/113/4 10/20/4 53/13/4
f 12/108/3 61/12/3 31/22/3
f 11/114/1 63/3/1 39/28/1
f 12/108/3 75/115/3 55/10/3
f 64/112/6 56/30/6 14/109/6
f 69/25/6 45/40/6 18/98/6
f 65/37/4 44/33/4 13/35/4
f 70/64/2 36/43/2 25/88/2
f 65/16/4 43/8/4 68/116/4
f 19/74/3 90/117/3 29/97/3
f 66/14/2 32/46/2 15/71/2
f 71/65/2 25/88/2 32/46/2
f 2/99/4 83/118/4 13/35/4
f 74/26/6 18/98/6 56/30/6
f 57/119/12 78/120/12 68/121/12
f 6/96/3 17/122/3 33/72/3
f 57/38/4 66/14/4 15/71/4
f 73/101/6 16/58/6 45/40/6
f 72/6/2 14/123/2 36/43/2
f 79/124/4 76/107/4 80/34/4
f 77/125/4 75/115/4 76/107/4
f 77/125/4 78/126/4 81/127/4
f 79/124/4 78/128/4 77/125/4
f 68/129/13 79/130/13 44/131/13
f 55/10/2 81/127/2 57/38/2
f 95/132/5 86/133/5 87/36/5
f 89/134/5 84/135/5 90/136/5
f 92/137/5 91/138/5 17/139/5
f 96/140/5 86/141/5 94/142/5
f 93/143/5 90/136/5 91/138/5
f 94/142/5 86/144/5 95/132/5
f 88/145/5 86/146/5 96/140/5
f 85/147/5 17/139/5 82/59/5
f 88/145/5 92/137/5 85/147/5
f 94/142/5 89/134/5 93/143/5
f 96/140/5 93/143/5 92/137/5
f 95/132/5 83/118/5 89/134/5
f 29/97/3 84/135/3 2/99/3
f 67/148/6 85/147/6 16/58/6
f 101/90/10 103/149/10 24/150/10
f 98/103/11 102/52/11 24/151/11
f 104/152/14 97/102/14 24/153/14
f 103/149/14 104/152/14 24/154/14
f 1/155/2 27/87/2 67/148/2
f 59/66/2 103/156/2 63/3/2
f 60/68/2 104/157/2 59/66/2
f 48/70/4 98/158/4 28/105/4
f 63/3/6 101/159/6 39/28/6
f 51/29/5 99/160/5 46/94/5
f 28/105/4 97/161/4 60/68/4
f 39/28/6 100/162/6 51/29/6
f 46/94/5 102/163/5 48/70/5
f 54/1/1 7/164/1 34/2/1
f 34/4/2 7/165/2 64/5/2
f 22/7/1 48/70/1 43/8/1
f 55/10/3 4/39/3 26/11/3
f 53/13/4 3/69/4 66/14/4
f 41/21/3 12/108/3 31/22/3
f 54/24/6 11/100/6 69/25/6
f 40/27/1 11/114/1 39/28/1
f 56/30/6 18/98/6 9/31/6
f 44/33/5 79/124/5 80/34/5
f 13/35/4 83/118/4 87/36/4
f 57/38/4 15/71/4 4/39/4
f 45/40/6 16/58/6 6/41/6
f 36/43/2 14/123/2 8/44/2
f 32/46/2 25/88/2 21/47/2
f 1/49/7 86/166/7 88/50/7
f 47/55/3 23/75/3 35/56/3
f 16/58/6 85/147/6 82/59/6
f 58/60/3 21/77/3 37/61/3
f 30/63/2 20/92/2 70/64/2
f 59/66/1 20/93/1 30/67/1
f 60/68/1 30/67/1 3/69/1
f 3/69/2 30/63/2 71/65/2
f 48/70/1 28/105/1 10/20/1
f 15/71/2 32/46/2 26/48/2
f 33/72/3 17/122/3 91/73/3
f 49/23/3 31/22/3 23/75/3
f 1/76/1 46/94/1 48/70/1
f 61/12/3 26/11/3 21/77/3
f 62/62/3 37/61/3 8/78/3
f 1/80/9 65/167/9 87/81/9
f 50/57/3 35/56/3 9/83/3
f 40/85/4 73/168/4 67/86/4
f 25/88/2 36/43/2 37/45/2
f 20/92/2 34/4/2 72/6/2
f 63/3/1 34/2/1 20/93/1
f 46/94/1 1/76/1 5/95/1
f 33/72/3 50/57/3 42/84/3
f 29/97/3 49/23/3 47/55/3
f 19/74/3 47/55/3 50/57/3
f 18/98/6 45/40/6 42/42/6
f 13/35/4 44/33/4 41/21/4
f 51/29/3 40/27/3 27/87/3
f 2/99/3 41/21/3 49/23/3
f 11/100/6 40/169/6 73/101/6
f 35/56/3 62/62/3 52/79/3
f 31/22/3 61/12/3 58/60/3
f 28/105/1 60/68/1 53/13/1
f 23/75/3 58/60/3 62/62/3
f 41/21/3 80/34/3 76/107/3
f 14/109/6 56/30/6 52/32/6
f 7/111/6 54/24/6 74/26/6
f 12/108/3 55/10/3 61/12/3
f 11/114/1 54/1/1 63/3/1
f 12/108/3 76/107/3 75/115/3
f 64/112/6 74/26/6 56/30/6
f 69/25/6 73/101/6 45/40/6
f 65/37/4 68/18/4 44/33/4
f 70/64/2 72/6/2 36/43/2
f 65/16/4 38/9/4 43/8/4
f 19/74/3 91/73/3 90/117/3
f 66/14/2 71/65/2 32/46/2
f 71/65/2 70/64/2 25/88/2
f 2/99/4 84/135/4 83/118/4
f 74/26/6 69/25/6 18/98/6
f 57/119/12 81/170/12 78/120/12
f 6/96/3 82/171/3 17/122/3
f 57/38/4 68/15/4 66/14/4
f 73/101/6 67/148/6 16/58/6
f 72/6/2 64/5/2 14/123/2
f 79/124/4 77/125/4 76/107/4
f 77/125/4 81/127/4 75/115/4
f 68/129/13 78/172/13 79/130/13
f 55/10/2 75/115/2 81/127/2
f 89/134/5 83/118/5 84/135/5
f 92/137/5 93/143/5 91/138/5
f 93/143/5 89/134/5 90/136/5
f 85/147/5 92/137/5 17/139/5
f 88/145/5 96/140/5 92/137/5
f 94/142/5 95/132/5 89/134/5
f 96/140/5 94/142/5 93/143/5
f 95/132/5 87/36/5 83/118/5
f 29/97/3 90/117/3 84/135/3
f 67/148/6 88/145/6 85/147/6
f 59/66/2 104/157/2 103/156/2
f 60/68/2 97/161/2 104/157/2
f 48/70/4 102/163/4 98/158/4
f 63/3/6 103/156/6 101/159/6
f 51/29/5 100/162/5 99/160/5
f 28/105/4 98/158/4 97/161/4
f 39/28/6 101/159/6 100/162/6
f 46/94/5 99/160/5 102/163/5
