# Blender v2.92.0 OBJ File: ''
# www.blender.org
mtllib skybox.mtl
o Cube.001
v 1.000000 1.000000 -1.000000
v 1.000000 -1.000000 -1.000000
v -1.000000 -1.000000 -1.000000
v -1.000000 1.000000 -1.000000
v -1.000000 -1.000000 1.000000
v -1.000000 1.000000 1.000000
v 1.000000 -1.000000 1.000000
v 0.999999 1.000000 1.000001
vt 0.000029 0.749972
vt 0.000022 0.500022
vt 0.250007 0.500016
vt 0.250027 0.749986
vt 0.499967 0.500024
vt 0.499982 0.749984
vt 0.750011 0.500018
vt 0.750003 0.749973
vt 0.999985 0.500026
vt 0.999984 0.749981
vt 0.250025 0.999975
vt 0.499982 0.999977
vt 0.250040 0.250034
vt 0.499942 0.250059
vn 0.0000 0.0000 -1.0000
vn -1.0000 0.0000 0.0000
vn 0.0000 -0.0000 1.0000
vn 1.0000 0.0000 0.0000
vn 0.0000 1.0000 0.0000
vn 0.0000 -1.0000 -0.0000
usemtl Material.001
s 1
f 1/1/1 2/2/1 3/3/1
f 1/1/1 3/3/1 4/4/1
f 5/5/2 6/6/2 4/4/2
f 5/5/2 4/4/2 3/3/2
f 7/7/3 8/8/3 5/5/3
f 8/8/3 6/6/3 5/5/3
f 2/9/4 1/10/4 7/7/4
f 1/10/4 8/8/4 7/7/4
f 1/11/5 4/4/5 8/12/5
f 4/4/5 6/6/5 8/12/5
f 2/13/6 7/14/6 5/5/6
f 2/13/6 5/5/6 3/3/6
